<svg width="126" height="124" viewBox="0 0 126 124" fill="none" xmlns="http://www.w3.org/2000/svg">
<path d="M76.057 112C69.1574 112 62.2578 112 55.3583 112C49.6313 112 43.7827 109.926 38.5433 107.759C28.6274 103.657 23.4377 96.2852 19.2115 86.8496C16.2802 80.3052 14.3691 72.6524 13.3968 65.5571C12.8302 61.4222 13.1798 57.0867 13.1798 52.918C13.1798 49.2004 12.7224 45.1762 13.2666 41.4937C14.0477 36.2076 16.3509 30.6204 20.2096 26.8298C24.3586 22.754 30.3606 19.5522 35.8312 17.5369C43.5566 14.691 52.9159 12.3613 61.2164 12.2511C69.049 12.1471 76.3875 11.2605 84.0414 13.5939C89.8359 15.3605 97.3313 19.0952 100.357 24.5279C101.909 27.3143 103.706 29.6358 104.979 32.6058C106.777 36.8016 109.147 41.0044 110.208 45.4581C111.291 50.0059 112.715 54.7399 112.768 59.44C112.81 63.1477 113.385 67.5131 112.551 71.1413C111.856 74.1662 109.709 76.4312 107.691 78.7077C104.62 82.1711 100.956 85.8505 97.1462 88.5121C84.9123 97.0583 69.015 102.953 54.4904 96.7393C43.3438 91.9707 37.9503 79.9494 35.6576 69.0099C34.9646 65.7031 35.0501 62.3261 35.0501 58.9711C35.0501 55.2826 34.8408 51.5728 35.5275 47.9305C36.3882 43.3646 39.5061 37.3644 43.2515 34.5028C50.676 28.8301 62.9253 27.3894 71.761 30.2826C76.3479 31.7846 79.9219 33.9412 83.8461 36.5915C86.7132 38.5279 87.9155 41.5239 89.3354 44.4777C91.095 48.1381 90.8975 52.9119 90.8975 56.8397C90.8975 60.9964 89.164 64.5532 86.1677 67.4967C84.0243 69.6022 80.9141 70.6811 78.3134 72.1004C75.073 73.8689 71.5104 74.4023 67.8556 74.4023C65.8534 74.4023 62.7786 75.1058 61.4117 73.4645C60.156 71.9568 59.1913 70.8074 58.2873 69.0312C56.8451 66.1976 56.9204 62.548 56.9204 59.44C56.9204 56.7429 57.9242 55.2505 60.4353 54.1542C61.5822 53.6534 64.6123 53.1555 65.5124 54.2607C66.6961 55.7143 66.684 56.328 66.684 58.2891" stroke="black" stroke-width="10" stroke-linecap="round"/>
</svg>
