<?xml version="1.0" encoding="UTF-8"?>
<svg id="Layer_1" xmlns="http://www.w3.org/2000/svg" version="1.1" viewBox="0 0 124 124">
  <!-- Generator: Adobe Illustrator 29.5.0, SVG Export Plug-In . SVG Version: 2.1.0 Build 137)  -->
  <defs>
    <style>
      .st0 {
        fill: none;
        stroke: #000;
        stroke-linecap: round;
      }
    </style>
  </defs>
  <path class="st0" d="M77.3,116.8c-5.3,0-10.4.2-15.8.2h-7.5c-1.6,0-3.4-.6-5.1-.6s-3.6-1-5.5-1-2.6-.6-3.4-.9c-1.3-.8-3-1-4.3-1.7-2.2-1.1-4-2.4-6-3.7-2.2-1.4-4.1-2-5.8-4.1-1.5-1.9-3.3-4-4.3-6.3-.3-.9-.8-1.8-1.2-2.6-.3-.7-.7-1.8-1.1-2.3-.8-.8.9.6-.2-.9-.8-1-1.4-2.1-2-3.3-1.3-2.6-2.5-5.5-3.1-8.4-.8-4.1-2.9-8-3.4-12.2-.2-1.5-.5-3-.5-4.5v-5.6c-.2-4.8-1-9.9-1-14.9s-.3-5.5.5-8.6c.4-1.4,1.6-2.9,2.4-4.2.3-.7,1.2-2.8,1.9-3.1.8-.4,1.2-1.9,1.9-2.4,1-1,2.6-2,3.5-3.1,1.6-2.2,4.7-3.4,6.9-4.8,1-.6,2.4-.9,3.2-1.5s2.4-1.7,3.4-1.9c1.5-.3,2.9-1.7,4.4-2.1,1.2-.4,2.6-.7,3.8-1.1,1.1-.4,2.4-.4,3.6-.7,1.8-.3,3.6-.8,5.4-1.1,1.3-.2,2.6-.6,4-.8,1.6-.3,3.4-.4,5.1-.8,1.9-.4,3.8-.2,5.7-.6,1.6-.3,3.4-.4,5.2-.4s4.8-.2,7.1.2,4.9,1.1,7.1,2.2c.5.3,2.2.4,2.6.9.3.3,2.2,1.1,2.6,1.2,2.5.6,5.2,1.9,7.5,3.1,1.3.7,2.7,1.4,3.7,2.5,1.4,1.4,2.7,3.1,4,4.8,1.1,1.8,4.1,3.4,4.3,5.7.2,2.4,2.3,4.7,3.1,6.9.4,1.4,1.4,2.8,2,4.3.4,1.4.8,3,1.3,4.3.5,1.2.3,2.8.7,4,.3,1.1.5,2.3.7,3.4.4,2.8,1.3,5.6,1.5,8.4.2,3.6.8,7.2.8,10.9s-1.9,6.2-3.8,8.4c-.3.3-.7.9-.9,1.3-.3.6-.8.7-1.1,1.2-.7.9-1.4,1.7-2.2,2.4s-1.8,2-2.6,2.9c-1.3,1.4-3,2.4-4.4,3.6-3.6,3.2-7,6.4-11.3,8.9-1.2.8-2.3,1.4-3.6,1.8-1.2.3-2.5.4-3.8.8-3.6,1.1-7.4,1.7-11.1,2.5-1.9.4-3.8.3-5.7.3s-4.5.4-6.5-.1c-1.8-.6-3.5-.6-5.2-1.4-1.3-.7-2.7-1.3-4.2-2-1.4-.6-2.5-1.7-3.8-2.3-.8-.4-1.9-.9-2.5-1.4-.7-.7-1.5-1.1-2.3-1.7-1.2-.9-1.8-2.2-2.7-3.2-1.4-1.7-2.6-4.1-3.3-6.2-1.2-3.7-2.4-7.3-3.2-11.1-.8-4.1-1.8-8.3-2.7-12.2s-1.1-8.1-1.1-12.3c0-6.9,7-13.3,12.1-17.3,7.6-5.9,17.3-6.9,26.6-6.9h4.2c2.1,0,4,1.3,5.9,1.9,1.8.4,4.6,2.2,5.9,3.4,1.3,1.3,2.7,2.4,4.1,3.7,2.3,2.3,3.3,5.7,4.3,8.8,1.1,3.2,1,6.4,1.6,9.6,3,13.5-9.7,26.6-22.3,28.5-2.6.4-7.1.9-9.5-1-1.1-.9-2.3-1.2-3.3-2.5-.9-1.2-2.1-2-3-3.3-1.6-2.6-2.2-5.5-2.2-8.6s-.8-7.2.5-10c1.1-2.3,2.6-3.6,5.3-3.6s3.8-.7,5.8.3c1.5.8,3,1.8,3.4,3.4.2,1.1.4,4.5-1.1,4.5s-1.1-1-1.5-1.7c-.5-1-1.4-.9-2.2-1.5-1.3-1-3.6-.2-4.7.9-1.4,1.2-2,2.5-1.5,4.5.2.9.8,1.9,1.2,2.8.8,1.5,1.2,3.4,2.3,4.8,1.3,1.7,2.1,3.5,4.5,3.5h6.9c5.3,0,9.9-2.4,13.2-6.4,1.6-2.1,3.7-3.7,3.7-6.6s.5-4.1.5-6.3.1-4.5-.2-6.6c-.3-1.8-.9-3.5-1.9-5.1-.4-.7-1.1-1.5-1.3-2.3-.2-.7-1.2-1.7-1.6-2.1-1.1-1.1-2.1-2.4-3.3-3.5-1.3-1.2-3.6-2.9-5.5-2.9s-3.7-.8-5.6-.8-2.5-.3-3.3-.6c-1-.4-2.4-.4-3.5-.4-5.8,0-11.5-.7-16.7,2.6-1.1.7-2.3,1.4-3.4,2s-2,.9-2.3,1.7c-.2.6-1.2,1.7-1.5,2.1-.7.8-1.1,1.9-1.6,2.8-.7.9-1.2,1.9-1.6,2.9-.5,1.2-.4,2.3-.9,3.4-.8,2.4-1.2,5.1-1.2,7.6v8c0,1.4,0,2.9.2,4.2.3,1.7.9,3.5,1.1,5.2.2,1.5,1,3.4,1.4,5,.4,1.5,1.1,3,1.9,4.4,1.1,1.9,2.1,3.6,3.2,5.5.3.6,1.8,1.8,2.3,2.1,1.1.7,2.2,2.4,3,3.4,1.9,2.3,4.4,3,7.1,4,2.2.7,4.5,1.2,6.7,2.1,1.2.4,2.9.9,4.1.9h3.7c1.8,0,3.5-.7,5.3-.8,3.1-.2,5.7-2.1,8.7-2.9,1.9-.4,4.1-1.5,5.6-2.9,1.1-.9,2.6-2.3,4-2.8,1.1-.4,1.9-1.5,3-2.1,1.4-.8,2.7-1.7,4.2-2.4,2.3-1.3,4.9-4.3,6.2-6.6.9-1.8,2.3-3.3,3.1-5.2.5-1.3,1.1-2.6,1.6-4,1-2.1,1.8-4.4,2.2-6.6.4-2.4.1-5.2.1-7.7s.3-3,0-4.1c-.5-1.7-1.6-3.1-2-4.7-.4-1.8-1.8-3.9-2.6-5.5-1.1-2.1-2.2-4.2-3.3-6.3-.9-1.7-2-3.2-3-4.8-1.3-2.1-2.5-4.2-3.8-6.2-.9-1.3-2.2-2.2-3.3-3.3-1.2-1.3-2.9-2.9-4.3-3.7-2.3-1.5-4.9-2.8-7.5-3.9-3.2-1.4-6.4-3.5-9.9-4.1-2.4-.3-5.1-.6-7.5-.6-4.1,0-8.1-.2-12.2.8-2.3.6-4.8.8-7,1.7-2.4,1-4.9,1.7-7.5,2.4-1.8.7-3.6,1.5-5.5,2-1,.2-2,.8-2.9,1.2-1,.4-2.1.6-3,1.2-2.9,2-6.4,3.1-8.5,6.1-.9,1.2-1.9,2.3-2.7,3.5-1.2,1.8-1.8,4-2.7,5.8-3.7,7.8-4.1,17.2-2.9,25.6.8,5.6,1.4,11.4,3.1,16.8,1.2,3.6,1.9,7.8,4.6,10.8,1.3,1.4,2.1,3.6,3.2,5.2,1,1.4,2.2,3.2,3.4,4.4,3,3,6,5.9,9.6,8.3,2,1.2,3.8,2.5,5.7,3.7,2.1,1.3,4.9,1.9,7.4,2.8,1.3.6,2.6.9,4.1.9,6.6,0,13.2.2,19.9.2s4.5.3,5.8,1.5c.4.3,1.4,1.4.7,2.1-.5.4-1.6.2-2.4.2"/>
</svg>