<?xml version="1.0" encoding="UTF-8"?>
<svg id="Layer_1" xmlns="http://www.w3.org/2000/svg" version="1.1" viewBox="0 0 378 124">
  <!-- Generator: Adobe Illustrator 29.5.0, SVG Export Plug-In . SVG Version: 2.1.0 Build 137)  -->
  <defs>
    <style>
      .st0, .st1 {
        isolation: isolate;
      }

      .st2 {
        fill: none;
        stroke: #000;
        stroke-linecap: round;
        stroke-width: 5px;
      }

      .st1 {
        font-family: Waldorfschrift, Waldorfschrift;
        font-size: 30px;
      }
    </style>
  </defs>
  <path class="st2" d="M76.9,111.7c-4.8,0-9.5.2-14.4.2h-6.8c-1.5,0-3.1-.5-4.6-.5s-3.3-.9-5-.9-2.4-.5-3.1-.8c-1.2-.7-2.7-.9-3.9-1.5-2-1-3.6-2.2-5.5-3.4-2-1.3-3.7-1.8-5.3-3.7-1.4-1.7-3-3.6-3.9-5.7-.3-.8-.7-1.6-1.1-2.4-.3-.6-.6-1.6-1-2.1-.7-.7.8.5-.2-.8-.7-.9-1.3-1.9-1.8-3-1.2-2.4-2.3-5-2.8-7.6-.7-3.7-2.6-7.3-3.1-11.1-.2-1.4-.5-2.7-.5-4.1v-5.1c-.2-4.4-.9-9-.9-13.5s-.3-5,.5-7.8c.4-1.3,1.5-2.6,2.2-3.8.3-.6,1.1-2.5,1.7-2.8.7-.4,1.1-1.7,1.7-2.2.9-.9,2.4-1.8,3.2-2.8,1.5-2,4.3-3.1,6.3-4.4.9-.5,2.2-.8,2.9-1.4s2.2-1.5,3.1-1.7c1.4-.3,2.6-1.5,4-1.9,1.1-.4,2.4-.6,3.5-1,1-.4,2.2-.4,3.3-.6,1.6-.3,3.3-.7,4.9-1,1.2-.2,2.4-.5,3.6-.7,1.5-.3,3.1-.4,4.6-.7,1.7-.4,3.5-.2,5.2-.5,1.5-.3,3.1-.4,4.7-.4s4.4-.2,6.5.2,4.5,1,6.5,2c.5.3,2,.4,2.4.8.3.3,2,1,2.4,1.1,2.3.5,4.7,1.7,6.8,2.8,1.2.6,2.5,1.3,3.4,2.3,1.3,1.3,2.5,2.8,3.6,4.4,1,1.6,3.7,3.1,3.9,5.2.2,2.2,2.1,4.3,2.8,6.3.4,1.3,1.3,2.5,1.8,3.9.4,1.3.7,2.7,1.2,3.9.5,1.1.3,2.5.6,3.6.3,1,.5,2.1.6,3.1.4,2.5,1.2,5.1,1.4,7.6.2,3.3.7,6.5.7,9.9s-1.7,5.6-3.5,7.6c-.3.3-.6.8-.8,1.2-.3.5-.7.6-1,1.1-.6.8-1.3,1.5-2,2.2s-1.6,1.8-2.4,2.6c-1.2,1.3-2.7,2.2-4,3.3-3.3,2.9-6.4,5.8-10.3,8.1-1.1.7-2.1,1.3-3.3,1.6-1.1.3-2.3.4-3.5.7-3.3,1-6.7,1.5-10.1,2.3-1.7.4-3.5.3-5.2.3s-4.1.4-5.9,0c-1.6-.5-3.2-.5-4.7-1.3-1.2-.6-2.5-1.2-3.8-1.8-1.3-.5-2.3-1.5-3.5-2.1-.7-.4-1.7-.8-2.3-1.3-.6-.6-1.4-1-2.1-1.5-1.1-.8-1.6-2-2.5-2.9-1.3-1.5-2.4-3.7-3-5.6-1.1-3.4-2.2-6.6-2.9-10.1-.7-3.7-1.6-7.5-2.5-11.1s-1-7.4-1-11.2c0-6.3,6.4-12.1,11-15.7,6.9-5.4,15.7-6.3,24.2-6.3h3.8c1.9,0,3.6,1.2,5.4,1.7,1.6.4,4.2,2,5.4,3.1,1.2,1.2,2.5,2.2,3.7,3.4,2.1,2.1,3,5.2,3.9,8,1,2.9.9,5.8,1.5,8.7,2.7,12.3-8.8,24.2-20.3,25.9-2.4.4-6.5.8-8.6-.9-1-.8-2.1-1.1-3-2.3-.8-1.1-1.9-1.8-2.7-3-1.5-2.4-2-5-2-7.8s-.7-6.5.5-9.1c1-2.1,2.4-3.3,4.8-3.3s3.5-.6,5.3.3c1.4.7,2.7,1.6,3.1,3.1.2,1,.4,4.1-1,4.1s-1-.9-1.4-1.5c-.5-.9-1.3-.8-2-1.4-1.2-.9-3.3-.2-4.3.8-1.3,1.1-1.8,2.3-1.4,4.1.2.8.7,1.7,1.1,2.5.7,1.4,1.1,3.1,2.1,4.4,1.2,1.5,1.9,3.2,4.1,3.2h6.3c4.8,0,9-2.2,12-5.8,1.5-1.9,3.4-3.4,3.4-6s.5-3.7.5-5.7,0-4.1-.2-6c-.3-1.6-.8-3.2-1.7-4.6-.4-.6-1-1.4-1.2-2.1-.2-.6-1.1-1.5-1.5-1.9-1-1-1.9-2.2-3-3.2-1.2-1.1-3.3-2.6-5-2.6s-3.4-.7-5.1-.7-2.3-.3-3-.5c-.9-.4-2.2-.4-3.2-.4-5.3,0-10.5-.6-15.2,2.4-1,.6-2.1,1.3-3.1,1.8s-1.8.8-2.1,1.5c-.2.5-1.1,1.5-1.4,1.9-.6.7-1,1.7-1.5,2.5-.6.8-1.1,1.7-1.5,2.6-.5,1.1-.4,2.1-.8,3.1-.7,2.2-1.1,4.6-1.1,6.9v7.3c0,1.3,0,2.6.2,3.8.3,1.5.8,3.2,1,4.7.2,1.4.9,3.1,1.3,4.5.4,1.4,1,2.7,1.7,4,1,1.7,1.9,3.3,2.9,5,.3.5,1.6,1.6,2.1,1.9,1,.6,2,2.2,2.7,3.1,1.7,2.1,4,2.7,6.5,3.6,2,.6,4.1,1.1,6.1,1.9,1.1.4,2.6.8,3.7.8h3.4c1.6,0,3.2-.6,4.8-.7,2.8-.2,5.2-1.9,7.9-2.6,1.7-.4,3.7-1.4,5.1-2.6,1-.8,2.4-2.1,3.6-2.5,1-.4,1.7-1.4,2.7-1.9,1.3-.7,2.5-1.5,3.8-2.2,2.1-1.2,4.5-3.9,5.6-6,.8-1.6,2.1-3,2.8-4.7.5-1.2,1-2.4,1.5-3.6.9-1.9,1.6-4,2-6,.4-2.2,0-4.7,0-7s.3-2.7,0-3.7c-.5-1.5-1.5-2.8-1.8-4.3-.4-1.6-1.6-3.5-2.4-5-1-1.9-2-3.8-3-5.7-.8-1.5-1.8-2.9-2.7-4.4-1.2-1.9-2.3-3.8-3.5-5.6-.8-1.2-2-2-3-3-1.1-1.2-2.6-2.6-3.9-3.4-2.1-1.4-4.5-2.5-6.8-3.5-2.9-1.3-5.8-3.2-9-3.7-2.2-.3-4.6-.5-6.8-.5-3.7,0-7.4-.2-11.1.7-2.1.5-4.4.7-6.4,1.5-2.2.9-4.5,1.5-6.8,2.2-1.6.6-3.3,1.4-5,1.8-.9.2-1.8.7-2.6,1.1-.9.4-1.9.5-2.7,1.1-2.6,1.8-5.8,2.8-7.7,5.5-.8,1.1-1.7,2.1-2.5,3.2-1.1,1.6-1.6,3.6-2.5,5.3-3.4,7.1-3.7,15.6-2.6,23.3.7,5.1,1.3,10.4,2.8,15.3,1.1,3.3,1.7,7.1,4.2,9.8,1.2,1.3,1.9,3.3,2.9,4.7.9,1.3,2,2.9,3.1,4,2.7,2.7,5.5,5.4,8.7,7.5,1.8,1.1,3.5,2.3,5.2,3.4,1.9,1.2,4.5,1.7,6.7,2.5,1.2.5,2.4.8,3.7.8,6,0,12,.2,18.1.2s4.1.3,5.3,1.4c.4.3,1.3,1.3.6,1.9-.5.4-1.5.2-2.2.2"/>
  <g class="st0">
    <text class="st1" transform="translate(123.6 113.5)"><tspan x="0" y="0">Waldorf in India</tspan></text>
  </g>
</svg>