<svg width="126" height="124" viewBox="0 0 126 124" fill="none" xmlns="http://www.w3.org/2000/svg">
<path d="M76.8619 111.718C72.0483 111.718 67.3486 111.955 62.5064 111.955C60.225 111.955 57.9373 112.005 55.6567 111.955C54.1078 111.921 52.5651 111.481 51.0115 111.481C49.3502 111.481 47.6639 110.534 46.0382 110.534C45.317 110.534 43.6005 110.058 42.9677 109.705C41.7639 109.035 40.3066 108.839 39.0704 108.219C37.0657 107.214 35.4416 106.068 33.5854 104.851C31.6221 103.565 29.8714 103.091 28.3235 101.194C26.9177 99.472 25.339 97.5574 24.4262 95.4985C24.0787 94.7146 23.7733 93.8704 23.3633 93.1307C23.0371 92.5419 22.7853 91.4988 22.3529 91.0654C21.6598 90.3706 23.1918 91.5734 22.1955 90.2893C21.4985 89.391 20.907 88.3534 20.4109 87.3295C19.2579 84.9499 18.0956 82.3412 17.5765 79.7393C16.8293 75.994 14.9426 72.4449 14.5191 68.6237C14.3631 67.2164 14.0336 65.9238 14.0336 64.48C14.0336 62.7922 14.127 61.0748 14.0336 59.3892C13.7883 54.9633 13.1703 50.388 13.0888 45.8926C13.0359 42.9749 12.7595 40.8917 13.5612 38.0788C13.9352 36.7665 15.0764 35.4866 15.7394 34.2902C16.0853 33.6661 16.8796 31.7729 17.4453 31.4489C18.124 31.0601 18.5371 29.7755 19.1118 29.1994C20.049 28.2599 21.5264 27.4325 22.3005 26.4238C23.8378 24.4203 26.5603 23.2809 28.6253 21.9776C29.4783 21.4391 30.7926 21.198 31.5121 20.5569C32.1806 19.9612 33.7552 19.0837 34.5827 18.8994C35.9575 18.5931 37.187 17.424 38.5455 16.9525C39.674 16.5609 40.9599 16.3495 42.0229 15.9396C43.0451 15.5455 44.2432 15.5301 45.3165 15.3345C46.9439 15.0379 48.5875 14.598 50.2504 14.3479C51.4666 14.165 52.6642 13.8924 53.8458 13.677C55.358 13.4014 56.9418 13.3023 58.4386 12.9272C60.162 12.4953 61.9592 12.7616 63.6874 12.4537C65.2244 12.1797 66.7956 12.0327 68.3588 12.0327C70.5201 12.0327 72.7689 11.8738 74.8674 12.2563C77.0084 12.6466 79.3835 13.2308 81.3496 14.2164C81.8746 14.4795 83.3945 14.5951 83.7116 14.9925C83.9672 15.3127 85.7415 16.025 86.1261 16.1106C88.467 16.6321 90.7848 17.8565 92.9233 18.8994C94.1125 19.4794 95.4031 20.2278 96.335 21.162C97.5949 22.425 98.8833 23.9577 99.8911 25.5293C100.935 27.1565 103.558 28.6638 103.788 30.7385C104.028 32.8981 105.899 35.0603 106.57 37.079C107.016 38.4205 107.861 39.6128 108.329 40.9728C108.763 42.2367 109.029 43.6365 109.575 44.8402C110.055 45.8995 109.877 47.3321 110.218 48.4446C110.523 49.4378 110.713 50.5362 110.861 51.5754C111.22 54.0927 112.105 56.6854 112.291 59.205C112.538 62.5462 113 65.7036 113 69.0973C113 71.9378 111.342 74.6733 109.457 76.6743C109.162 76.9871 108.887 77.4744 108.696 77.8582C108.423 78.4051 108.045 78.4773 107.699 78.9237C107.095 79.7016 106.413 80.4366 105.678 81.1732C104.842 82.011 104.118 82.9295 103.316 83.7778C102.117 85.0461 100.597 85.9504 99.3006 87.1059C95.9996 90.0473 92.864 92.9479 89.0392 95.2485C87.9089 95.9284 86.9866 96.5316 85.7193 96.8139C84.5797 97.0678 83.3783 97.2262 82.2419 97.5637C78.8974 98.5572 75.4931 99.0789 72.138 99.8263C70.4623 100.2 68.6053 100.116 66.8891 100.116C65.0667 100.116 62.8025 100.489 61.0367 99.9973C59.3881 99.5383 57.8743 99.5001 56.3128 98.695C55.0799 98.0594 53.7839 97.4601 52.5205 96.906C51.27 96.3576 50.2107 95.3865 48.9907 94.775C48.2824 94.42 47.2422 93.9956 46.6812 93.4332C46.0951 92.8457 45.2804 92.4477 44.621 91.9336C43.5534 91.1011 43.0088 89.9536 42.141 88.987C40.8091 87.5034 39.7893 85.2556 39.1754 83.4094C38.0592 80.0525 36.9304 76.8266 36.2361 73.3462C35.4974 69.6436 34.6284 65.8873 33.6904 62.2306C32.7562 58.5886 32.6931 54.8092 32.6931 51.0492C32.6931 44.7121 39.077 38.955 43.6763 35.3689C50.6041 29.9673 59.3422 29.081 67.8864 29.081C69.1461 29.081 70.4059 29.081 71.6656 29.081C73.5931 29.081 75.2564 30.3282 77.0981 30.7385C78.7416 31.1047 81.2606 32.6923 82.4781 33.8693C83.6859 35.0369 84.996 36.0514 86.1917 37.25C88.3159 39.3795 89.2074 42.4258 90.1414 45.2349C91.0926 48.0955 91.0494 51.0542 91.6898 53.9432C94.4129 66.2277 82.9361 78.1272 71.4294 79.8051C68.9945 80.1601 64.9161 80.5804 62.8082 78.9369C61.7783 78.1338 60.6789 77.8137 59.8557 76.6217C59.0762 75.4929 57.9062 74.7917 57.1395 73.5961C55.6278 71.2388 55.1318 68.5885 55.1318 65.8349C55.1318 63.0968 54.4542 59.3294 55.6567 56.7846C56.6367 54.7106 58.0217 53.4696 60.4462 53.4696C62.3436 53.4696 63.9524 52.8526 65.7607 53.759C67.1217 54.4412 68.4861 55.4053 68.8181 56.903C69.0485 57.9423 69.2252 61.0466 67.7683 61.0466C66.8528 61.0466 66.7316 60.1941 66.3511 59.5076C65.8295 58.5662 65.0936 58.7121 64.396 58.1526C63.2197 57.2093 61.1424 57.9796 60.0919 58.9156C58.8341 60.0365 58.288 61.2552 58.6879 63.0593C58.8761 63.9086 59.3998 64.7771 59.8032 65.5455C60.5262 66.9226 60.9178 68.6903 61.8765 69.926C63.0704 71.4648 63.7371 73.1225 65.9968 73.1225C68.1051 73.1225 70.2134 73.1225 72.3217 73.1225C77.1139 73.1225 81.3328 70.9463 84.3021 67.3082C85.8197 65.4488 87.7269 63.8773 87.7269 61.2834C87.7269 59.4019 88.1993 57.5511 88.1993 55.6007C88.1993 53.589 88.332 51.5374 87.9763 49.5759C87.6948 48.0242 87.1523 46.3395 86.3098 44.9981C85.9431 44.4142 85.2911 43.5617 85.1157 42.946C84.9552 42.3828 84.0055 41.4516 83.5935 41.0385C82.5501 39.9926 81.7178 38.8646 80.641 37.842C79.4506 36.7114 77.3274 35.2374 75.6809 35.2374C73.9968 35.2374 72.3164 34.527 70.6027 34.527C69.9159 34.527 68.2898 34.2708 67.6502 34.0008C66.7439 33.6183 65.4587 33.5799 64.4616 33.5799C59.1708 33.5799 53.9635 32.9912 49.2794 35.9477C48.2691 36.5854 47.1825 37.2179 46.1563 37.7894C45.5392 38.133 44.3117 38.5581 44.0306 39.2627C43.8413 39.737 42.97 40.7548 42.6134 41.1569C41.9835 41.8673 41.6512 42.8875 41.065 43.6432C40.4485 44.4377 39.9549 45.3183 39.5428 46.2478C39.0759 47.3009 39.1032 48.3445 38.7817 49.3917C38.1083 51.5858 37.6532 53.9968 37.6532 56.311C37.6532 58.7534 37.6532 61.1957 37.6532 63.6381C37.6532 64.9095 37.5543 66.2002 37.837 67.4398C38.185 68.9662 38.656 70.6274 38.8473 72.1623C39.0213 73.5575 39.7455 75.2747 40.1333 76.6743C40.5344 78.1218 41.1401 79.4145 41.8523 80.6996C42.8026 82.4144 43.8005 83.9829 44.7916 85.672C45.0673 86.1418 46.389 87.3207 46.8649 87.6189C47.8422 88.2312 48.8394 89.8408 49.5812 90.7497C51.2934 92.8476 53.5579 93.498 56.0766 94.3014C58.1109 94.9503 60.221 95.4172 62.2177 96.1957C63.3002 96.6177 64.7866 97.0376 65.9444 97.0376C67.0641 97.0376 68.1839 97.0376 69.3036 97.0376C70.9525 97.0376 72.509 96.483 74.1456 96.3404C76.902 96.1001 79.3799 94.4656 82.0582 93.7752C83.7598 93.3366 85.7689 92.3833 87.1365 91.2232C88.1337 90.3773 89.538 89.163 90.745 88.6976C91.7262 88.3193 92.4601 87.2723 93.3957 86.8033C94.7079 86.1456 95.8835 85.3273 97.1617 84.6065C99.2877 83.4076 101.653 80.7194 102.725 78.5685C103.543 76.9287 104.814 75.5253 105.547 73.846C106.063 72.6626 106.556 71.463 107.095 70.2812C107.965 68.3735 108.692 66.3168 109.103 64.2564C109.545 62.0415 109.221 59.5195 109.221 57.2581C109.221 56.1585 109.496 54.5883 109.168 53.5222C108.713 52.0374 107.701 50.7047 107.331 49.2207C106.92 47.5721 105.734 45.7677 104.969 44.2351C104.019 42.3295 102.973 40.4703 102.017 38.5523C101.254 37.0232 100.19 35.6368 99.3006 34.1719C98.144 32.2671 97.0396 30.381 95.7576 28.5549C94.9392 27.3889 93.7361 26.5662 92.8052 25.5293C91.7418 24.3448 90.1815 22.969 88.8554 22.0828C86.7847 20.6989 84.3191 19.5701 82.0451 18.5442C79.1343 17.2311 76.2872 15.3462 73.0828 14.8872C70.8677 14.57 68.4748 14.4005 66.233 14.4005C62.4959 14.4005 58.7836 14.1678 55.1318 15.0583C52.9993 15.5783 50.7519 15.7275 48.702 16.5316C46.5092 17.3917 44.1546 17.9831 41.9179 18.7678C40.2715 19.3455 38.6233 20.142 36.9447 20.6095C36.059 20.8561 35.1718 21.3383 34.3465 21.7408C33.4466 22.1796 32.4658 22.2264 31.6302 22.8063C29.0009 24.6311 25.8523 25.5691 23.9538 28.3181C23.187 29.4284 22.2508 30.4421 21.4738 31.5673C20.3583 33.1824 19.8239 35.1378 18.9937 36.8949C15.6361 44.0007 15.2596 52.531 16.3955 60.2179C17.1443 65.2845 17.6583 70.5786 19.2299 75.4904C20.2971 78.8257 20.9489 82.5736 23.429 85.2511C24.6316 86.5495 25.3303 88.5048 26.3158 89.9867C27.1953 91.3092 28.2738 92.8441 29.3864 93.9594C32.1122 96.692 34.8611 99.3142 38.1256 101.418C39.9083 102.567 41.602 103.709 43.3745 104.851C45.3022 106.094 47.924 106.502 50.0536 107.338C51.2278 107.798 52.4653 108.166 53.7146 108.166C59.7546 108.166 65.7467 108.403 71.7837 108.403C73.3281 108.403 75.8876 108.745 77.0981 109.824C77.4844 110.168 78.4016 111.146 77.6886 111.718C77.1459 112.153 76.1453 111.955 75.4447 111.955" stroke="black" stroke-width="5" stroke-linecap="round"/>
</svg>
