<?xml version="1.0" encoding="UTF-8"?>
<svg id="a" xmlns="http://www.w3.org/2000/svg" version="1.1" viewBox="0 0 50 50">
  <!-- Generator: Adobe Illustrator 29.5.0, SVG Export Plug-In . SVG Version: 2.1.0 Build 137)  -->
  <defs>
    <style>
      .st0 {
        fill: none;
        stroke: #000;
        stroke-linecap: round;
        stroke-linejoin: round;
      }
    </style>
  </defs>
  <path class="st0" d="M30.6,13.1c.8,0,1.6.5,1.6,1.3h0l2.6,24.4c0,.8-.5,1.6-1.3,1.6l-24.3,2.6c-.8,0-1.6-.5-1.6-1.3h0l-2.6-24.3c0-.8.5-1.6,1.3-1.6l24.3-2.7h0Z"/>
  <path class="st0" d="M13.6,19.8c-1.8.2-3.2,1.8-3,3.7.2,1.8,1.8,3.2,3.7,3,1.8-.2,3.2-1.8,3-3.7s-1.9-3.2-3.7-3h0ZM22.6,25.5l-4.7,5.8c-.2.2-.5.3-.7,0h0l-1.1-.9c-.2-.2-.6,0-.7,0l-5.1,6.3c-.2.2-.2.6,0,.7,0,0,0,0,.2,0l20.5-2.2c.3,0,.5-.3.5-.6s0-.2,0-.3l-8-9.3c-.3,0-.6,0-.8,0h0Z"/>
  <path class="st0" d="M17.1,14.6l.7-6.2c0-.8.8-1.4,1.6-1.3l24.3,2.6c.8,0,1.4.8,1.3,1.6h0l-2.6,24.3c0,.7-.8,1.3-1.6,1.3l-6.3-.7"/>
</svg>