<?xml version="1.0" encoding="UTF-8"?>
<svg id="a" xmlns="http://www.w3.org/2000/svg" version="1.1" viewBox="0 0 800 800">
  <!-- Generator: Adobe Illustrator 29.5.0, SVG Export Plug-In . SVG Version: 2.1.0 Build 137)  -->
  <defs>
    <style>
      .st0 {
        fill: none;
        stroke: #000;
        stroke-linecap: round;
        stroke-linejoin: round;
        stroke-width: 30px;
      }
    </style>
  </defs>
  <path class="st0" d="M491.7,206.2c12.9-1.6,25.7,8,25.7,20.9h0l41.8,397.2c1.6,12.9-8,25.7-20.9,25.7l-395.6,41.8c-12.9,1.6-25.7-8-25.7-20.9h0l-41.8-395.6c-1.6-12.9,8-25.7,20.9-25.7l395.6-43.4h0Z"/>
  <path class="st0" d="M215.1,315.6c-28.9,3.2-51.5,28.9-48.2,59.5,3.2,28.9,28.9,51.5,59.5,48.2,28.9-3.2,51.5-28.9,48.2-59.5s-30.6-51.5-59.5-48.2h0ZM361.4,408.8l-77.2,94.9c-3.2,3.2-8,4.8-11.3,1.6h0l-17.7-14.5c-3.2-3.2-9.6-1.6-11.3,1.6l-83.6,102.9c-3.2,3.2-3.2,9.6,1.6,11.3-1.6,1.6,1.6,1.6,3.2,1.6l332.9-35.4c4.8,0,8-4.8,8-9.6s-1.6-3.2-1.6-4.8l-130.3-151.2c-4.8-1.6-9.6-1.6-12.9,1.6h0Z"/>
  <path class="st0" d="M271.4,230.4l11.3-101.3c1.6-12.9,12.9-22.5,25.7-20.9l395.6,41.8c12.9,1.6,22.5,12.9,20.9,25.7h0l-41.8,395.6c0,11.3-12.9,20.9-25.7,20.9l-102.9-11.3"/>
  <path class="st0" d="M546.3,498.9l88.4,9.6c4.8,0,8-3.2,9.6-8,0-1.6,0-3.2-1.6-4.8l-96.5-175.3c-1.6-3.2-8-4.8-11.3-3.2h0l-6.4,6.4"/>
</svg>