<?xml version="1.0" encoding="UTF-8"?>
<svg id="Layer_1" xmlns="http://www.w3.org/2000/svg" version="1.1" viewBox="0 0 800 800">
  <!-- Generator: Adobe Illustrator 29.5.0, SVG Export Plug-In . SVG Version: 2.1.0 Build 137)  -->
  <path d="M675,75H125c-13.8,0-25,11.2-25,25s11.2,25,25,25h550c13.8,0,25-11.2,25-25s-11.2-25-25-25Z"/>
  <path d="M675,175H125c-13.8,0-25,11.2-25,25s11.2,25,25,25h550c13.8,0,25-11.2,25-25s-11.2-25-25-25Z"/>
  <path d="M675,275H125c-13.8,0-25,11.2-25,25s11.2,25,25,25h550c13.8,0,25-11.2,25-25s-11.2-25-25-25Z"/>
  <path d="M675,375H125c-13.8,0-25,11.2-25,25s11.2,25,25,25h550c13.8,0,25-11.2,25-25s-11.2-25-25-25Z"/>
  <path d="M675,475H125c-13.8,0-25,11.2-25,25s11.2,25,25,25h550c13.8,0,25-11.2,25-25s-11.2-25-25-25Z"/>
  <path d="M675,575H125c-13.8,0-25,11.2-25,25s11.2,25,25,25h550c13.8,0,25-11.2,25-25s-11.2-25-25-25Z"/>
  <path d="M675,675H125c-13.8,0-25,11.2-25,25s11.2,25,25,25h550c13.8,0,25-11.2,25-25s-11.2-25-25-25Z"/>
</svg>