<svg width="126" height="124" viewBox="0 0 126 124" fill="none" xmlns="http://www.w3.org/2000/svg">
<path d="M76.4057 104.883C71.7772 104.883 67.2583 105.11 62.6023 105.11C60.4087 105.11 58.209 105.158 56.016 105.11C54.5267 105.078 53.0434 104.655 51.5495 104.655C49.9522 104.655 48.3307 103.744 46.7675 103.744C46.0741 103.744 44.4236 103.286 43.8151 102.948C42.6576 102.303 41.2564 102.114 40.0677 101.518C38.1401 100.552 36.5785 99.4501 34.7937 98.2802C32.9059 97.0428 31.2225 96.5876 29.7341 94.7639C28.3824 93.1077 26.8645 91.2667 25.9868 89.287C25.6526 88.5333 25.3589 87.7215 24.9648 87.0102C24.651 86.4441 24.409 85.4412 23.9932 85.0244C23.3268 84.3563 24.7998 85.5129 23.8418 84.2781C23.1717 83.4144 22.6029 82.4168 22.1258 81.4322C21.0172 79.1441 19.8996 76.6358 19.4005 74.1339C18.682 70.5327 16.8679 67.1201 16.4607 63.4459C16.3107 62.0927 15.9938 60.8498 15.9938 59.4615C15.9938 57.8387 16.0836 56.1873 15.9938 54.5665C15.758 50.3109 15.1638 45.9116 15.0854 41.589C15.0345 38.7835 14.7687 36.7804 15.5396 34.0757C15.8992 32.8139 16.9966 31.5833 17.6341 30.4329C17.9667 29.8328 18.7304 28.0124 19.2743 27.7008C19.9269 27.327 20.3241 26.0919 20.8767 25.5379C21.7779 24.6345 23.1985 23.839 23.9427 22.869C25.421 20.9426 28.0388 19.847 30.0243 18.5938C30.8446 18.0761 32.1083 17.8443 32.8001 17.2278C33.4429 16.655 34.957 15.8113 35.7526 15.634C37.0745 15.3395 38.2567 14.2153 39.563 13.762C40.6481 13.3855 41.8845 13.1822 42.9066 12.7881C43.8896 12.4091 45.0415 12.3944 46.0736 12.2063C47.6384 11.921 49.2188 11.498 50.8177 11.2576C51.9871 11.0818 53.1386 10.8196 54.2748 10.6125C55.7288 10.3475 57.2517 10.2523 58.6909 9.89156C60.348 9.47625 62.0762 9.73235 63.7379 9.43621C65.2158 9.17281 66.7265 9.03145 68.2296 9.03145C70.3078 9.03145 72.4701 8.8787 74.4878 9.24648C76.5465 9.62171 78.8303 10.1835 80.7208 11.1311C81.2256 11.3841 82.687 11.4953 82.9919 11.8774C83.2377 12.1853 84.9438 12.8702 85.3135 12.9525C87.5644 13.454 89.793 14.6312 91.8493 15.634C92.9928 16.1917 94.2338 16.9113 95.1298 17.8096C96.3413 19.0241 97.5801 20.4978 98.5491 22.0089C99.5525 23.5736 102.075 25.0229 102.296 27.0178C102.527 29.0943 104.326 31.1733 104.971 33.1144C105.4 34.4043 106.212 35.5508 106.662 36.8584C107.08 38.0737 107.336 39.4198 107.861 40.5771C108.323 41.5957 108.151 42.9732 108.479 44.0429C108.772 44.9978 108.955 46.0541 109.097 47.0532C109.442 49.4737 110.293 51.9667 110.473 54.3894C110.71 57.6021 111.154 60.638 111.154 63.9012C111.154 66.6325 109.56 69.2628 107.747 71.1868C107.464 71.4876 107.199 71.9561 107.015 72.3252C106.753 72.8511 106.389 72.9205 106.056 73.3497C105.476 74.0977 104.82 74.8045 104.113 75.5126C103.31 76.3182 102.613 77.2014 101.842 78.0171C100.69 79.2367 99.2281 80.1062 97.9813 81.2172C94.8074 84.0455 91.7924 86.8345 88.1146 89.0467C87.0278 89.7004 86.1409 90.2804 84.9224 90.5519C83.8266 90.796 82.6714 90.9483 81.5788 91.2728C78.3629 92.2281 75.0895 92.7297 71.8634 93.4484C70.2522 93.8073 68.4667 93.7267 66.8165 93.7267C65.0641 93.7267 62.887 94.0856 61.1892 93.6128C59.604 93.1714 58.1484 93.1347 56.6469 92.3606C55.4614 91.7494 54.2153 91.1732 53.0005 90.6404C51.7981 90.113 50.7795 89.1793 49.6064 88.5913C48.9254 88.25 47.9252 87.842 47.3858 87.3012C46.8223 86.7362 46.0389 86.3536 45.4049 85.8592C44.3782 85.0588 43.8546 83.9554 43.0202 83.0259C41.7395 81.5995 40.7589 79.438 40.1687 77.6629C39.0954 74.4351 38.01 71.3333 37.3424 67.9867C36.6321 64.4265 35.7965 60.8147 34.8946 57.2986C33.9963 53.7967 33.9357 50.1627 33.9357 46.5473C33.9357 40.4539 40.0741 34.9182 44.4964 31.4701C51.1578 26.2762 59.5598 25.4241 67.7754 25.4241C68.9867 25.4241 70.1979 25.4241 71.4092 25.4241C73.2626 25.4241 74.8619 26.6233 76.6328 27.0178C78.2131 27.3699 80.6352 28.8965 81.8059 30.0282C82.9673 31.1508 84.2269 32.1263 85.3766 33.2789C87.4191 35.3265 88.2763 38.2556 89.1744 40.9566C90.089 43.7072 90.0475 46.5521 90.6633 49.33C93.2817 61.142 82.2463 72.5839 71.1821 74.1972C68.8408 74.5386 64.9193 74.9427 62.8925 73.3624C61.9022 72.5902 60.8451 72.2824 60.0536 71.1362C59.304 70.0508 58.179 69.3767 57.4418 68.227C55.9883 65.9604 55.5114 63.412 55.5114 60.7643C55.5114 58.1315 54.8598 54.509 56.016 52.0621C56.9583 50.0678 58.2901 48.8746 60.6214 48.8746C62.4458 48.8746 63.9927 48.2814 65.7314 49.1529C67.0401 49.8089 68.352 50.7359 68.6712 52.1759C68.8928 53.1752 69.0627 56.1602 67.6619 56.1602C66.7815 56.1602 66.665 55.3405 66.2992 54.6804C65.7976 53.7752 65.09 53.9155 64.4192 53.3775C63.2881 52.4705 61.2907 53.2111 60.2807 54.1112C59.0713 55.1889 58.5461 56.3608 58.9306 58.0955C59.1117 58.9122 59.6152 59.7472 60.0031 60.4861C60.6983 61.8102 61.0748 63.5099 61.9967 64.6981C63.1446 66.1777 63.7857 67.7717 65.9585 67.7717C67.9857 67.7717 70.0129 67.7717 72.0401 67.7717C76.648 67.7717 80.7046 65.6792 83.5597 62.181C85.019 60.3931 86.8528 58.882 86.8528 56.3879C86.8528 54.5788 87.3071 52.7992 87.3071 50.9237C87.3071 48.9894 87.4346 47.0167 87.0926 45.1306C86.822 43.6387 86.3003 42.0188 85.4902 40.7289C85.1376 40.1675 84.5107 39.3477 84.342 38.7557C84.1877 38.2143 83.2745 37.3188 82.8784 36.9217C81.8751 35.916 81.0748 34.8313 80.0395 33.8481C78.8948 32.761 76.8533 31.3436 75.2701 31.3436C73.6508 31.3436 72.035 30.6606 70.3872 30.6606C69.7269 30.6606 68.1633 30.4142 67.5483 30.1547C66.6769 29.7868 65.4411 29.7499 64.4823 29.7499C59.395 29.7499 54.388 29.1838 49.884 32.0267C48.9126 32.6398 47.8678 33.248 46.8811 33.7975C46.2877 34.1279 45.1074 34.5367 44.8371 35.2141C44.6551 35.6702 43.8173 36.6488 43.4744 37.0355C42.8687 37.7186 42.5492 38.6996 41.9856 39.4261C41.3928 40.1901 40.9181 41.0368 40.5219 41.9305C40.073 42.9432 40.0992 43.9466 39.7901 44.9536C39.1426 47.0633 38.705 49.3815 38.705 51.6067C38.705 53.9552 38.705 56.3036 38.705 58.652C38.705 59.8745 38.6099 61.1156 38.8817 62.3075C39.2163 63.7752 39.6692 65.3725 39.8532 66.8483C40.0205 68.1899 40.7168 69.8411 41.0897 71.1868C41.4754 72.5787 42.0578 73.8216 42.7426 75.0573C43.6563 76.7061 44.6159 78.2143 45.5689 79.8385C45.8339 80.2902 47.1048 81.4237 47.5624 81.7105C48.5021 82.2992 49.461 83.847 50.1742 84.7208C51.8206 86.738 53.998 87.3635 56.4198 88.136C58.3758 88.7599 60.4048 89.2089 62.3247 89.9574C63.3655 90.3632 64.7948 90.7669 65.908 90.7669C66.9847 90.7669 68.0614 90.7669 69.1381 90.7669C70.7235 90.7669 72.2202 90.2337 73.7939 90.0965C76.4442 89.8655 78.8269 88.2939 81.4021 87.63C83.0383 87.2083 84.9701 86.2916 86.2851 85.1762C87.244 84.3628 88.5942 83.1951 89.7548 82.7477C90.6983 82.3839 91.4039 81.3772 92.3035 80.9263C93.5653 80.2938 94.6957 79.507 95.9247 78.8139C97.969 77.6612 100.243 75.0763 101.274 73.0082C102.061 71.4314 103.283 70.0821 103.987 68.4674C104.484 67.3294 104.958 66.176 105.476 65.0396C106.313 63.2053 107.011 61.2277 107.406 59.2465C107.831 57.1168 107.52 54.6919 107.52 52.5174C107.52 51.4601 107.784 49.9503 107.47 48.9252C107.031 47.4975 106.059 46.2161 105.703 44.7891C105.308 43.2039 104.167 41.469 103.432 39.9953C102.518 38.163 101.513 36.3753 100.593 34.5311C99.8598 33.0608 98.8366 31.7277 97.9813 30.3191C96.8693 28.4876 95.8073 26.6741 94.5747 24.9181C93.7877 23.797 92.6308 23.0059 91.7357 22.0089C90.7133 20.87 89.213 19.5471 87.9379 18.695C85.9468 17.3643 83.5761 16.2789 81.3895 15.2925C78.5907 14.0299 75.8531 12.2175 72.7719 11.7762C70.6421 11.4712 68.3411 11.3082 66.1856 11.3082C62.5922 11.3082 59.0227 11.0844 55.5114 11.9406C53.4609 12.4406 51.2999 12.5841 49.3288 13.3573C47.2204 14.1844 44.9563 14.753 42.8057 15.5075C41.2226 16.063 39.6378 16.8289 38.0237 17.2784C37.1722 17.5155 36.319 17.9791 35.5255 18.3661C34.6602 18.7881 33.7172 18.833 32.9137 19.3907C30.3854 21.1453 27.358 22.0472 25.5325 24.6905C24.7952 25.7581 23.895 26.7328 23.1479 27.8147C22.0753 29.3677 21.5615 31.2479 20.7632 32.9374C17.5347 39.7699 17.1726 47.9721 18.2649 55.3634C18.9849 60.2351 19.4791 65.3255 20.9903 70.0484C22.0164 73.2555 22.6431 76.8592 25.0278 79.4337C26.1843 80.6822 26.8561 82.5623 27.8037 83.9872C28.6493 85.2589 29.6864 86.7347 30.7561 87.8071C33.3771 90.4346 36.0203 92.956 39.1593 94.9789C40.8733 96.0835 42.5019 97.1818 44.2062 98.2802C46.0598 99.4747 48.5808 99.8675 50.6284 100.671C51.7575 101.114 52.9474 101.468 54.1487 101.468C59.9564 101.468 65.718 101.695 71.5228 101.695C73.0078 101.695 75.4688 102.024 76.6328 103.061C77.0042 103.392 77.8862 104.333 77.2006 104.883C76.6788 105.301 75.7166 105.11 75.043 105.11" stroke="black" stroke-linecap="round"/>
<g filter="url(#filter0_f_240_1019)">
<circle cx="67.5" cy="102.5" r="3.5" fill="#D32C33"/>
</g>
<g filter="url(#filter1_f_240_1019)">
<circle cx="52.5" cy="86.5" r="3.5" fill="#D32C33"/>
</g>
<g filter="url(#filter2_f_240_1019)">
<circle cx="51.5" cy="100.5" r="3.5" fill="#E95958"/>
</g>
<g filter="url(#filter3_f_240_1019)">
<circle cx="41.5" cy="74.5" r="3.5" fill="#E95958"/>
</g>
<g filter="url(#filter4_f_240_1019)">
<circle cx="37.5" cy="94.5" r="3.5" fill="#EE8734"/>
</g>
<g filter="url(#filter5_f_240_1019)">
<circle cx="37.5" cy="59.5" r="3.5" fill="#EE8734"/>
</g>
<g filter="url(#filter6_f_240_1019)">
<circle cx="27.5" cy="83.5" r="3.5" fill="#FDCE45"/>
</g>
<g filter="url(#filter7_f_240_1019)">
<circle cx="37.5" cy="44.5" r="3.5" fill="#FDCE45"/>
</g>
<g filter="url(#filter8_f_240_1019)">
<circle cx="19.5" cy="70.5" r="3.5" fill="#B7C334"/>
</g>
<g filter="url(#filter9_f_240_1019)">
<circle cx="48.5" cy="31.5" r="3.5" fill="#B7C334"/>
</g>
<g filter="url(#filter10_f_240_1019)">
<circle cx="16.5" cy="53.5" r="3.5" fill="#3BB376"/>
</g>
<g filter="url(#filter11_f_240_1019)">
<circle cx="62.5" cy="26.5" r="3.5" fill="#3BB376"/>
</g>
<g filter="url(#filter12_f_240_1019)">
<circle cx="18.5" cy="37.5" r="3.5" fill="#62C2DC"/>
</g>
<g filter="url(#filter13_f_240_1019)">
<circle cx="78.5" cy="28.5" r="3.5" fill="#62C2DC"/>
</g>
<g filter="url(#filter14_f_240_1019)">
<circle cx="29.5" cy="22.5" r="3.5" fill="#6D7BEC"/>
</g>
<g filter="url(#filter15_f_240_1019)">
<circle cx="87.5" cy="38.5" r="3.5" fill="#6D7BEC"/>
</g>
<g filter="url(#filter16_f_240_1019)">
<circle cx="45.5" cy="14.5" r="3.5" fill="#775BB9"/>
</g>
<g filter="url(#filter17_f_240_1019)">
<circle cx="89.5" cy="51.5" r="3.5" fill="#775BB9"/>
</g>
<g filter="url(#filter18_f_240_1019)">
<circle cx="67.5" cy="91.5" r="3.5" fill="#775BB9"/>
</g>
<g filter="url(#filter19_f_240_1019)">
<circle cx="62.5" cy="10.5" r="3.5" fill="#D32C33"/>
</g>
<g filter="url(#filter20_f_240_1019)">
<circle cx="83.5" cy="64.5" r="3.5" fill="#D32C33"/>
</g>
<g filter="url(#filter21_f_240_1019)">
<circle cx="79.5" cy="12.5" r="3.5" fill="#E95958"/>
</g>
<g filter="url(#filter22_f_240_1019)">
<circle cx="71.5" cy="70.5" r="3.5" fill="#E95958"/>
</g>
<g filter="url(#filter23_f_240_1019)">
<circle cx="94.5" cy="19.5" r="3.5" fill="#EE8734"/>
</g>
<g filter="url(#filter24_f_240_1019)">
<circle cx="59.5" cy="63.5" r="3.5" fill="#EE8734"/>
</g>
<g filter="url(#filter25_f_240_1019)">
<circle cx="103.5" cy="33.5" r="3.5" fill="#FED04F"/>
</g>
<g filter="url(#filter26_f_240_1019)">
<circle cx="61.5" cy="49.5" r="3.5" fill="#FED04F"/>
</g>
<g filter="url(#filter27_f_240_1019)">
<circle cx="108.5" cy="48.5" r="3.5" fill="#B7C334"/>
</g>
<g filter="url(#filter28_f_240_1019)">
<circle cx="107.5" cy="66.5" r="3.5" fill="#3BB376"/>
</g>
<g filter="url(#filter29_f_240_1019)">
<circle cx="97.5" cy="78.5" r="3.5" fill="#62C2DC"/>
</g>
<g filter="url(#filter30_f_240_1019)">
<circle cx="83.5" cy="88.5" r="3.5" fill="#6D7BEC"/>
</g>
<defs>
<filter id="filter0_f_240_1019" x="63" y="98" width="9" height="9" filterUnits="userSpaceOnUse" color-interpolation-filters="sRGB">
<feFlood flood-opacity="0" result="BackgroundImageFix"/>
<feBlend mode="normal" in="SourceGraphic" in2="BackgroundImageFix" result="shape"/>
<feGaussianBlur stdDeviation="0.5" result="effect1_foregroundBlur_240_1019"/>
</filter>
<filter id="filter1_f_240_1019" x="48" y="82" width="9" height="9" filterUnits="userSpaceOnUse" color-interpolation-filters="sRGB">
<feFlood flood-opacity="0" result="BackgroundImageFix"/>
<feBlend mode="normal" in="SourceGraphic" in2="BackgroundImageFix" result="shape"/>
<feGaussianBlur stdDeviation="0.5" result="effect1_foregroundBlur_240_1019"/>
</filter>
<filter id="filter2_f_240_1019" x="47" y="96" width="9" height="9" filterUnits="userSpaceOnUse" color-interpolation-filters="sRGB">
<feFlood flood-opacity="0" result="BackgroundImageFix"/>
<feBlend mode="normal" in="SourceGraphic" in2="BackgroundImageFix" result="shape"/>
<feGaussianBlur stdDeviation="0.5" result="effect1_foregroundBlur_240_1019"/>
</filter>
<filter id="filter3_f_240_1019" x="37" y="70" width="9" height="9" filterUnits="userSpaceOnUse" color-interpolation-filters="sRGB">
<feFlood flood-opacity="0" result="BackgroundImageFix"/>
<feBlend mode="normal" in="SourceGraphic" in2="BackgroundImageFix" result="shape"/>
<feGaussianBlur stdDeviation="0.5" result="effect1_foregroundBlur_240_1019"/>
</filter>
<filter id="filter4_f_240_1019" x="33" y="90" width="9" height="9" filterUnits="userSpaceOnUse" color-interpolation-filters="sRGB">
<feFlood flood-opacity="0" result="BackgroundImageFix"/>
<feBlend mode="normal" in="SourceGraphic" in2="BackgroundImageFix" result="shape"/>
<feGaussianBlur stdDeviation="0.5" result="effect1_foregroundBlur_240_1019"/>
</filter>
<filter id="filter5_f_240_1019" x="33" y="55" width="9" height="9" filterUnits="userSpaceOnUse" color-interpolation-filters="sRGB">
<feFlood flood-opacity="0" result="BackgroundImageFix"/>
<feBlend mode="normal" in="SourceGraphic" in2="BackgroundImageFix" result="shape"/>
<feGaussianBlur stdDeviation="0.5" result="effect1_foregroundBlur_240_1019"/>
</filter>
<filter id="filter6_f_240_1019" x="23" y="79" width="9" height="9" filterUnits="userSpaceOnUse" color-interpolation-filters="sRGB">
<feFlood flood-opacity="0" result="BackgroundImageFix"/>
<feBlend mode="normal" in="SourceGraphic" in2="BackgroundImageFix" result="shape"/>
<feGaussianBlur stdDeviation="0.5" result="effect1_foregroundBlur_240_1019"/>
</filter>
<filter id="filter7_f_240_1019" x="33" y="40" width="9" height="9" filterUnits="userSpaceOnUse" color-interpolation-filters="sRGB">
<feFlood flood-opacity="0" result="BackgroundImageFix"/>
<feBlend mode="normal" in="SourceGraphic" in2="BackgroundImageFix" result="shape"/>
<feGaussianBlur stdDeviation="0.5" result="effect1_foregroundBlur_240_1019"/>
</filter>
<filter id="filter8_f_240_1019" x="15" y="66" width="9" height="9" filterUnits="userSpaceOnUse" color-interpolation-filters="sRGB">
<feFlood flood-opacity="0" result="BackgroundImageFix"/>
<feBlend mode="normal" in="SourceGraphic" in2="BackgroundImageFix" result="shape"/>
<feGaussianBlur stdDeviation="0.5" result="effect1_foregroundBlur_240_1019"/>
</filter>
<filter id="filter9_f_240_1019" x="44" y="27" width="9" height="9" filterUnits="userSpaceOnUse" color-interpolation-filters="sRGB">
<feFlood flood-opacity="0" result="BackgroundImageFix"/>
<feBlend mode="normal" in="SourceGraphic" in2="BackgroundImageFix" result="shape"/>
<feGaussianBlur stdDeviation="0.5" result="effect1_foregroundBlur_240_1019"/>
</filter>
<filter id="filter10_f_240_1019" x="12" y="49" width="9" height="9" filterUnits="userSpaceOnUse" color-interpolation-filters="sRGB">
<feFlood flood-opacity="0" result="BackgroundImageFix"/>
<feBlend mode="normal" in="SourceGraphic" in2="BackgroundImageFix" result="shape"/>
<feGaussianBlur stdDeviation="0.5" result="effect1_foregroundBlur_240_1019"/>
</filter>
<filter id="filter11_f_240_1019" x="58" y="22" width="9" height="9" filterUnits="userSpaceOnUse" color-interpolation-filters="sRGB">
<feFlood flood-opacity="0" result="BackgroundImageFix"/>
<feBlend mode="normal" in="SourceGraphic" in2="BackgroundImageFix" result="shape"/>
<feGaussianBlur stdDeviation="0.5" result="effect1_foregroundBlur_240_1019"/>
</filter>
<filter id="filter12_f_240_1019" x="14" y="33" width="9" height="9" filterUnits="userSpaceOnUse" color-interpolation-filters="sRGB">
<feFlood flood-opacity="0" result="BackgroundImageFix"/>
<feBlend mode="normal" in="SourceGraphic" in2="BackgroundImageFix" result="shape"/>
<feGaussianBlur stdDeviation="0.5" result="effect1_foregroundBlur_240_1019"/>
</filter>
<filter id="filter13_f_240_1019" x="74" y="24" width="9" height="9" filterUnits="userSpaceOnUse" color-interpolation-filters="sRGB">
<feFlood flood-opacity="0" result="BackgroundImageFix"/>
<feBlend mode="normal" in="SourceGraphic" in2="BackgroundImageFix" result="shape"/>
<feGaussianBlur stdDeviation="0.5" result="effect1_foregroundBlur_240_1019"/>
</filter>
<filter id="filter14_f_240_1019" x="25" y="18" width="9" height="9" filterUnits="userSpaceOnUse" color-interpolation-filters="sRGB">
<feFlood flood-opacity="0" result="BackgroundImageFix"/>
<feBlend mode="normal" in="SourceGraphic" in2="BackgroundImageFix" result="shape"/>
<feGaussianBlur stdDeviation="0.5" result="effect1_foregroundBlur_240_1019"/>
</filter>
<filter id="filter15_f_240_1019" x="83" y="34" width="9" height="9" filterUnits="userSpaceOnUse" color-interpolation-filters="sRGB">
<feFlood flood-opacity="0" result="BackgroundImageFix"/>
<feBlend mode="normal" in="SourceGraphic" in2="BackgroundImageFix" result="shape"/>
<feGaussianBlur stdDeviation="0.5" result="effect1_foregroundBlur_240_1019"/>
</filter>
<filter id="filter16_f_240_1019" x="41" y="10" width="9" height="9" filterUnits="userSpaceOnUse" color-interpolation-filters="sRGB">
<feFlood flood-opacity="0" result="BackgroundImageFix"/>
<feBlend mode="normal" in="SourceGraphic" in2="BackgroundImageFix" result="shape"/>
<feGaussianBlur stdDeviation="0.5" result="effect1_foregroundBlur_240_1019"/>
</filter>
<filter id="filter17_f_240_1019" x="85" y="47" width="9" height="9" filterUnits="userSpaceOnUse" color-interpolation-filters="sRGB">
<feFlood flood-opacity="0" result="BackgroundImageFix"/>
<feBlend mode="normal" in="SourceGraphic" in2="BackgroundImageFix" result="shape"/>
<feGaussianBlur stdDeviation="0.5" result="effect1_foregroundBlur_240_1019"/>
</filter>
<filter id="filter18_f_240_1019" x="63" y="87" width="9" height="9" filterUnits="userSpaceOnUse" color-interpolation-filters="sRGB">
<feFlood flood-opacity="0" result="BackgroundImageFix"/>
<feBlend mode="normal" in="SourceGraphic" in2="BackgroundImageFix" result="shape"/>
<feGaussianBlur stdDeviation="0.5" result="effect1_foregroundBlur_240_1019"/>
</filter>
<filter id="filter19_f_240_1019" x="58" y="6" width="9" height="9" filterUnits="userSpaceOnUse" color-interpolation-filters="sRGB">
<feFlood flood-opacity="0" result="BackgroundImageFix"/>
<feBlend mode="normal" in="SourceGraphic" in2="BackgroundImageFix" result="shape"/>
<feGaussianBlur stdDeviation="0.5" result="effect1_foregroundBlur_240_1019"/>
</filter>
<filter id="filter20_f_240_1019" x="79" y="60" width="9" height="9" filterUnits="userSpaceOnUse" color-interpolation-filters="sRGB">
<feFlood flood-opacity="0" result="BackgroundImageFix"/>
<feBlend mode="normal" in="SourceGraphic" in2="BackgroundImageFix" result="shape"/>
<feGaussianBlur stdDeviation="0.5" result="effect1_foregroundBlur_240_1019"/>
</filter>
<filter id="filter21_f_240_1019" x="75" y="8" width="9" height="9" filterUnits="userSpaceOnUse" color-interpolation-filters="sRGB">
<feFlood flood-opacity="0" result="BackgroundImageFix"/>
<feBlend mode="normal" in="SourceGraphic" in2="BackgroundImageFix" result="shape"/>
<feGaussianBlur stdDeviation="0.5" result="effect1_foregroundBlur_240_1019"/>
</filter>
<filter id="filter22_f_240_1019" x="67" y="66" width="9" height="9" filterUnits="userSpaceOnUse" color-interpolation-filters="sRGB">
<feFlood flood-opacity="0" result="BackgroundImageFix"/>
<feBlend mode="normal" in="SourceGraphic" in2="BackgroundImageFix" result="shape"/>
<feGaussianBlur stdDeviation="0.5" result="effect1_foregroundBlur_240_1019"/>
</filter>
<filter id="filter23_f_240_1019" x="90" y="15" width="9" height="9" filterUnits="userSpaceOnUse" color-interpolation-filters="sRGB">
<feFlood flood-opacity="0" result="BackgroundImageFix"/>
<feBlend mode="normal" in="SourceGraphic" in2="BackgroundImageFix" result="shape"/>
<feGaussianBlur stdDeviation="0.5" result="effect1_foregroundBlur_240_1019"/>
</filter>
<filter id="filter24_f_240_1019" x="55" y="59" width="9" height="9" filterUnits="userSpaceOnUse" color-interpolation-filters="sRGB">
<feFlood flood-opacity="0" result="BackgroundImageFix"/>
<feBlend mode="normal" in="SourceGraphic" in2="BackgroundImageFix" result="shape"/>
<feGaussianBlur stdDeviation="0.5" result="effect1_foregroundBlur_240_1019"/>
</filter>
<filter id="filter25_f_240_1019" x="99" y="29" width="9" height="9" filterUnits="userSpaceOnUse" color-interpolation-filters="sRGB">
<feFlood flood-opacity="0" result="BackgroundImageFix"/>
<feBlend mode="normal" in="SourceGraphic" in2="BackgroundImageFix" result="shape"/>
<feGaussianBlur stdDeviation="0.5" result="effect1_foregroundBlur_240_1019"/>
</filter>
<filter id="filter26_f_240_1019" x="57" y="45" width="9" height="9" filterUnits="userSpaceOnUse" color-interpolation-filters="sRGB">
<feFlood flood-opacity="0" result="BackgroundImageFix"/>
<feBlend mode="normal" in="SourceGraphic" in2="BackgroundImageFix" result="shape"/>
<feGaussianBlur stdDeviation="0.5" result="effect1_foregroundBlur_240_1019"/>
</filter>
<filter id="filter27_f_240_1019" x="104" y="44" width="9" height="9" filterUnits="userSpaceOnUse" color-interpolation-filters="sRGB">
<feFlood flood-opacity="0" result="BackgroundImageFix"/>
<feBlend mode="normal" in="SourceGraphic" in2="BackgroundImageFix" result="shape"/>
<feGaussianBlur stdDeviation="0.5" result="effect1_foregroundBlur_240_1019"/>
</filter>
<filter id="filter28_f_240_1019" x="103" y="62" width="9" height="9" filterUnits="userSpaceOnUse" color-interpolation-filters="sRGB">
<feFlood flood-opacity="0" result="BackgroundImageFix"/>
<feBlend mode="normal" in="SourceGraphic" in2="BackgroundImageFix" result="shape"/>
<feGaussianBlur stdDeviation="0.5" result="effect1_foregroundBlur_240_1019"/>
</filter>
<filter id="filter29_f_240_1019" x="93" y="74" width="9" height="9" filterUnits="userSpaceOnUse" color-interpolation-filters="sRGB">
<feFlood flood-opacity="0" result="BackgroundImageFix"/>
<feBlend mode="normal" in="SourceGraphic" in2="BackgroundImageFix" result="shape"/>
<feGaussianBlur stdDeviation="0.5" result="effect1_foregroundBlur_240_1019"/>
</filter>
<filter id="filter30_f_240_1019" x="79" y="84" width="9" height="9" filterUnits="userSpaceOnUse" color-interpolation-filters="sRGB">
<feFlood flood-opacity="0" result="BackgroundImageFix"/>
<feBlend mode="normal" in="SourceGraphic" in2="BackgroundImageFix" result="shape"/>
<feGaussianBlur stdDeviation="0.5" result="effect1_foregroundBlur_240_1019"/>
</filter>
</defs>
</svg>
