<svg width="126" height="124" viewBox="0 0 126 124" fill="none" xmlns="http://www.w3.org/2000/svg">
<circle cx="21.2372" cy="32.132" r="2.5" transform="rotate(146.464 21.2372 32.132)" fill="#D32C33"/>
<circle cx="26.2372" cy="27.132" r="2.5" transform="rotate(146.464 26.2372 27.132)" fill="#E95958"/>
<circle cx="31.2372" cy="23.132" r="2.5" transform="rotate(146.464 31.2372 23.132)" fill="#EE8734"/>
<circle cx="36.2372" cy="20.132" r="2.5" transform="rotate(146.464 36.2372 20.132)" fill="#FDCE45"/>
<circle cx="42.2372" cy="18.132" r="2.5" transform="rotate(146.464 42.2372 18.132)" fill="#B7C334"/>
<circle cx="103.237" cy="32.132" r="2.5" transform="rotate(146.464 103.237 32.132)" fill="#3BB376"/>
<circle cx="55.2372" cy="15.132" r="2.5" transform="rotate(146.464 55.2372 15.132)" fill="#62C2DC"/>
<circle cx="62.2372" cy="14.132" r="2.5" transform="rotate(146.464 62.2372 14.132)" fill="#6D7BEC"/>
<circle cx="69.2372" cy="14.132" r="2.5" transform="rotate(146.464 69.2372 14.132)" fill="#775BB9"/>
<circle cx="40.2372" cy="79.132" r="2.5" transform="rotate(146.464 40.2372 79.132)" fill="#775BB9"/>
<circle cx="76.2372" cy="14.132" r="2.5" transform="rotate(146.464 76.2372 14.132)" fill="#D32C33"/>
<circle cx="82.2372" cy="16.132" r="2.5" transform="rotate(146.464 82.2372 16.132)" fill="#E95958"/>
<circle cx="88.2372" cy="19.132" r="2.5" transform="rotate(146.464 88.2372 19.132)" fill="#EE8734"/>
<circle cx="94.2372" cy="22.132" r="2.5" transform="rotate(146.464 94.2372 22.132)" fill="#FED04F"/>
<circle cx="99.2372" cy="27.132" r="2.5" transform="rotate(146.464 99.2372 27.132)" fill="#B7C334"/>
<circle cx="48.2372" cy="16.132" r="2.5" transform="rotate(146.464 48.2372 16.132)" fill="#3BB376"/>
<circle cx="106.237" cy="38.132" r="2.5" transform="rotate(146.464 106.237 38.132)" fill="#62C2DC"/>
<circle cx="109.237" cy="44.132" r="2.5" transform="rotate(146.464 109.237 44.132)" fill="#6D7BEC"/>
<circle cx="108.209" cy="51.0864" r="2.5" transform="rotate(-69.8073 108.209 51.0864)" fill="#D32C33"/>
<circle cx="109.209" cy="58.0864" r="2.5" transform="rotate(-69.8073 109.209 58.0864)" fill="#E95958"/>
<circle cx="109.209" cy="64.0864" r="2.5" transform="rotate(-69.8073 109.209 64.0864)" fill="#EE8734"/>
<circle cx="109.209" cy="70.0864" r="2.5" transform="rotate(-69.8073 109.209 70.0864)" fill="#FDCE45"/>
<circle cx="106.209" cy="76.0864" r="2.5" transform="rotate(-69.8073 106.209 76.0864)" fill="#B7C334"/>
<circle cx="49.2093" cy="94.0864" r="2.5" transform="rotate(-69.8073 49.2093 94.0864)" fill="#3BB376"/>
<circle cx="97.2093" cy="86.0864" r="2.5" transform="rotate(-69.8073 97.2093 86.0864)" fill="#62C2DC"/>
<circle cx="92.2093" cy="90.0864" r="2.5" transform="rotate(-69.8073 92.2093 90.0864)" fill="#6D7BEC"/>
<circle cx="87.2093" cy="94.0864" r="2.5" transform="rotate(-69.8073 87.2093 94.0864)" fill="#775BB9"/>
<circle cx="81.2093" cy="97.0864" r="2.5" transform="rotate(-69.8073 81.2093 97.0864)" fill="#D32C33"/>
<circle cx="75.2093" cy="98.0864" r="2.5" transform="rotate(-69.8073 75.2093 98.0864)" fill="#E95958"/>
<circle cx="68.2093" cy="98.0864" r="2.5" transform="rotate(-69.8073 68.2093 98.0864)" fill="#EE8734"/>
<circle cx="61.2093" cy="98.0864" r="2.5" transform="rotate(-69.8073 61.2093 98.0864)" fill="#FED04F"/>
<circle cx="55.2093" cy="96.0864" r="2.5" transform="rotate(-69.8073 55.2093 96.0864)" fill="#B7C334"/>
<circle cx="102.209" cy="82.0864" r="2.5" transform="rotate(-69.8073 102.209 82.0864)" fill="#3BB376"/>
<circle cx="44.2093" cy="90.0864" r="2.5" transform="rotate(-69.8073 44.2093 90.0864)" fill="#62C2DC"/>
<circle cx="40.2093" cy="85.0864" r="2.5" transform="rotate(-69.8073 40.2093 85.0864)" fill="#6D7BEC"/>
<circle cx="38.1413" cy="74.0218" r="2.5" transform="rotate(-153.876 38.1413 74.0218)" fill="#D32C33"/>
<circle cx="37.1413" cy="68.0218" r="2.5" transform="rotate(-153.876 37.1413 68.0218)" fill="#E95958"/>
<circle cx="36.077" cy="54.3237" r="2.5" transform="rotate(-141.441 36.077 54.3237)" fill="#FDCE45"/>
<circle cx="38.077" cy="48.3237" r="2.5" transform="rotate(-141.441 38.077 48.3237)" fill="#B7C334"/>
<circle cx="41.077" cy="42.3237" r="2.5" transform="rotate(-141.441 41.077 42.3237)" fill="#3BB376"/>
<circle cx="46.077" cy="38.3237" r="2.5" transform="rotate(-141.441 46.077 38.3237)" fill="#62C2DC"/>
<circle cx="52.077" cy="35.3237" r="2.5" transform="rotate(-141.441 52.077 35.3237)" fill="#6D7BEC"/>
<circle cx="58.077" cy="33.3237" r="2.5" transform="rotate(-141.441 58.077 33.3237)" fill="#775BB9"/>
<circle cx="64.077" cy="33.3237" r="2.5" transform="rotate(-141.441 64.077 33.3237)" fill="#D32C33"/>
<circle cx="70.077" cy="33.3237" r="2.5" transform="rotate(-141.441 70.077 33.3237)" fill="#E95958"/>
<circle cx="76.077" cy="34.3237" r="2.5" transform="rotate(-141.441 76.077 34.3237)" fill="#EE8734"/>
<circle cx="81.077" cy="37.3237" r="2.5" transform="rotate(-141.441 81.077 37.3237)" fill="#FED04F"/>
<circle cx="85.077" cy="41.3237" r="2.5" transform="rotate(-141.441 85.077 41.3237)" fill="#B7C334"/>
<circle cx="84.5" cy="67.5" r="2.5" fill="#D32C33"/>
<circle cx="79.5" cy="72.5" r="2.5" fill="#E95958"/>
<circle cx="74.5" cy="74.5" r="2.5" fill="#EE8734"/>
<circle cx="68.5" cy="75.5" r="2.5" fill="#FDCE45"/>
<circle cx="64.2372" cy="76.132" r="2.5" transform="rotate(146.464 64.2372 76.132)" fill="#B7C334"/>
<circle cx="60.2372" cy="71.132" r="2.5" transform="rotate(146.464 60.2372 71.132)" fill="#3BB376"/>
<circle cx="58.2372" cy="65.132" r="2.5" transform="rotate(146.464 58.2372 65.132)" fill="#62C2DC"/>
<circle cx="59.2372" cy="59.132" r="2.5" transform="rotate(146.464 59.2372 59.132)" fill="#6D7BEC"/>
<circle cx="62.077" cy="56.3237" r="2.5" transform="rotate(-141.441 62.077 56.3237)" fill="#775BB9"/>
<circle cx="68.077" cy="58.3237" r="2.5" transform="rotate(-141.441 68.077 58.3237)" fill="#D32C33"/>
<circle cx="74.5" cy="109.5" r="2.5" fill="#D32C33"/>
<circle cx="67.5" cy="109.5" r="2.5" fill="#E95958"/>
<circle cx="60.5" cy="109.5" r="2.5" fill="#EE8734"/>
<circle cx="53.5" cy="108.5" r="2.5" fill="#FDCE45"/>
<circle cx="46.5" cy="107.5" r="2.5" fill="#B7C334"/>
<circle cx="14.5" cy="50.5" r="2.5" fill="#3BB376"/>
<circle cx="34.5" cy="101.5" r="2.5" fill="#62C2DC"/>
<circle cx="28.5" cy="97.5" r="2.5" fill="#6D7BEC"/>
<circle cx="24.5" cy="92.5" r="2.5" fill="#775BB9"/>
<circle cx="21.5" cy="85.5" r="2.5" fill="#D32C33"/>
<circle cx="18.5" cy="78.5" r="2.5" fill="#E95958"/>
<circle cx="15.5" cy="71.5" r="2.5" fill="#EE8734"/>
<circle cx="14.5" cy="64.5" r="2.5" fill="#FED04F"/>
<circle cx="14.5" cy="57.5" r="2.5" fill="#B7C334"/>
<circle cx="40.5" cy="105.5" r="2.5" fill="#3BB376"/>
<circle cx="14.5" cy="43.5" r="2.5" fill="#62C2DC"/>
<circle cx="15.5" cy="36.5" r="2.5" fill="#6D7BEC"/>
<circle cx="90.2372" cy="63.132" r="2.5" transform="rotate(146.464 90.2372 63.132)" fill="#775BB9"/>
<circle cx="36.077" cy="61.3237" r="2.5" transform="rotate(-141.441 36.077 61.3237)" fill="#EE8734"/>
<circle cx="89.077" cy="46.3237" r="2.5" transform="rotate(-141.441 89.077 46.3237)" fill="#3BB376"/>
<circle cx="90.077" cy="52.3237" r="2.5" transform="rotate(-141.441 90.077 52.3237)" fill="#62C2DC"/>
<circle cx="90.077" cy="58.3237" r="2.5" transform="rotate(-141.441 90.077 58.3237)" fill="#6D7BEC"/>
</svg>
