<svg width="126" height="124" viewBox="0 0 126 124" fill="none" xmlns="http://www.w3.org/2000/svg">
<circle cx="19.8512" cy="31.8509" r="3.5" transform="rotate(146.464 19.8512 31.8509)" fill="#D32C33"/>
<circle cx="24.8512" cy="26.8509" r="3.5" transform="rotate(146.464 24.8512 26.8509)" fill="#E95958"/>
<circle cx="29.8512" cy="22.8509" r="3.5" transform="rotate(146.464 29.8512 22.8509)" fill="#EE8734"/>
<circle cx="34.8512" cy="19.8509" r="3.5" transform="rotate(146.464 34.8512 19.8509)" fill="#FDCE45"/>
<circle cx="40.8512" cy="17.8509" r="3.5" transform="rotate(146.464 40.8512 17.8509)" fill="#B7C334"/>
<circle cx="101.851" cy="31.8509" r="3.5" transform="rotate(146.464 101.851 31.8509)" fill="#3BB376"/>
<circle cx="53.8512" cy="14.8509" r="3.5" transform="rotate(146.464 53.8512 14.8509)" fill="#62C2DC"/>
<circle cx="60.8512" cy="13.8509" r="3.5" transform="rotate(146.464 60.8512 13.8509)" fill="#6D7BEC"/>
<circle cx="67.8512" cy="13.8509" r="3.5" transform="rotate(146.464 67.8512 13.8509)" fill="#775BB9"/>
<circle cx="38.8512" cy="78.8509" r="3.5" transform="rotate(146.464 38.8512 78.8509)" fill="#775BB9"/>
<circle cx="74.8512" cy="13.8509" r="3.5" transform="rotate(146.464 74.8512 13.8509)" fill="#D32C33"/>
<circle cx="80.8512" cy="15.8509" r="3.5" transform="rotate(146.464 80.8512 15.8509)" fill="#E95958"/>
<circle cx="86.8512" cy="18.8509" r="3.5" transform="rotate(146.464 86.8512 18.8509)" fill="#EE8734"/>
<circle cx="92.8512" cy="21.8509" r="3.5" transform="rotate(146.464 92.8512 21.8509)" fill="#FED04F"/>
<circle cx="97.8512" cy="26.8509" r="3.5" transform="rotate(146.464 97.8512 26.8509)" fill="#B7C334"/>
<circle cx="46.8512" cy="15.8509" r="3.5" transform="rotate(146.464 46.8512 15.8509)" fill="#3BB376"/>
<circle cx="104.851" cy="37.8509" r="3.5" transform="rotate(146.464 104.851 37.8509)" fill="#62C2DC"/>
<circle cx="107.851" cy="43.8509" r="3.5" transform="rotate(146.464 107.851 43.8509)" fill="#6D7BEC"/>
<circle cx="109.493" cy="50.4931" r="3.5" transform="rotate(-69.8073 109.493 50.4931)" fill="#D32C33"/>
<circle cx="110.493" cy="57.4931" r="3.5" transform="rotate(-69.8073 110.493 57.4931)" fill="#E95958"/>
<circle cx="110.493" cy="63.4931" r="3.5" transform="rotate(-69.8073 110.493 63.4931)" fill="#EE8734"/>
<circle cx="110.493" cy="69.4931" r="3.5" transform="rotate(-69.8073 110.493 69.4931)" fill="#FDCE45"/>
<circle cx="107.493" cy="75.4931" r="3.5" transform="rotate(-69.8073 107.493 75.4931)" fill="#B7C334"/>
<circle cx="50.493" cy="93.4931" r="3.5" transform="rotate(-69.8073 50.493 93.4931)" fill="#3BB376"/>
<circle cx="98.493" cy="85.4931" r="3.5" transform="rotate(-69.8073 98.493 85.4931)" fill="#62C2DC"/>
<circle cx="93.493" cy="89.4931" r="3.5" transform="rotate(-69.8073 93.493 89.4931)" fill="#6D7BEC"/>
<circle cx="88.493" cy="93.4931" r="3.5" transform="rotate(-69.8073 88.493 93.4931)" fill="#775BB9"/>
<circle cx="82.493" cy="96.4931" r="3.5" transform="rotate(-69.8073 82.493 96.4931)" fill="#D32C33"/>
<circle cx="76.493" cy="97.4931" r="3.5" transform="rotate(-69.8073 76.493 97.4931)" fill="#E95958"/>
<circle cx="69.493" cy="97.4931" r="3.5" transform="rotate(-69.8073 69.493 97.4931)" fill="#EE8734"/>
<circle cx="62.493" cy="97.4931" r="3.5" transform="rotate(-69.8073 62.493 97.4931)" fill="#FED04F"/>
<circle cx="56.493" cy="95.4931" r="3.5" transform="rotate(-69.8073 56.493 95.4931)" fill="#B7C334"/>
<circle cx="103.493" cy="81.4931" r="3.5" transform="rotate(-69.8073 103.493 81.4931)" fill="#3BB376"/>
<circle cx="45.493" cy="89.4931" r="3.5" transform="rotate(-69.8073 45.493 89.4931)" fill="#62C2DC"/>
<circle cx="41.493" cy="84.4931" r="3.5" transform="rotate(-69.8073 41.493 84.4931)" fill="#6D7BEC"/>
<circle cx="37.6838" cy="72.6836" r="3.5" transform="rotate(-153.876 37.6838 72.6836)" fill="#D32C33"/>
<circle cx="36.6838" cy="66.6836" r="3.5" transform="rotate(-153.876 36.6838 66.6836)" fill="#E95958"/>
<circle cx="35.9184" cy="52.9184" r="3.5" transform="rotate(-141.441 35.9184 52.9184)" fill="#FDCE45"/>
<circle cx="37.9184" cy="46.9184" r="3.5" transform="rotate(-141.441 37.9184 46.9184)" fill="#B7C334"/>
<circle cx="40.9184" cy="40.9184" r="3.5" transform="rotate(-141.441 40.9184 40.9184)" fill="#3BB376"/>
<circle cx="45.9184" cy="36.9184" r="3.5" transform="rotate(-141.441 45.9184 36.9184)" fill="#62C2DC"/>
<circle cx="51.9184" cy="33.9184" r="3.5" transform="rotate(-141.441 51.9184 33.9184)" fill="#6D7BEC"/>
<circle cx="57.9184" cy="31.9184" r="3.5" transform="rotate(-141.441 57.9184 31.9184)" fill="#775BB9"/>
<circle cx="63.9184" cy="31.9184" r="3.5" transform="rotate(-141.441 63.9184 31.9184)" fill="#D32C33"/>
<circle cx="69.9184" cy="31.9184" r="3.5" transform="rotate(-141.441 69.9184 31.9184)" fill="#E95958"/>
<circle cx="75.9184" cy="32.9184" r="3.5" transform="rotate(-141.441 75.9184 32.9184)" fill="#EE8734"/>
<circle cx="80.9184" cy="35.9184" r="3.5" transform="rotate(-141.441 80.9184 35.9184)" fill="#FED04F"/>
<circle cx="84.9184" cy="39.9184" r="3.5" transform="rotate(-141.441 84.9184 39.9184)" fill="#B7C334"/>
<circle cx="85.5" cy="68.5" r="3.5" fill="#D32C33"/>
<circle cx="80.5" cy="73.5" r="3.5" fill="#E95958"/>
<circle cx="75.5" cy="75.5" r="3.5" fill="#EE8734"/>
<circle cx="69.5" cy="76.5" r="3.5" fill="#FDCE45"/>
<circle cx="62.8512" cy="75.8509" r="3.5" transform="rotate(146.464 62.8512 75.8509)" fill="#B7C334"/>
<circle cx="58.8512" cy="70.8509" r="3.5" transform="rotate(146.464 58.8512 70.8509)" fill="#3BB376"/>
<circle cx="56.8512" cy="64.8509" r="3.5" transform="rotate(146.464 56.8512 64.8509)" fill="#62C2DC"/>
<circle cx="57.8512" cy="58.8509" r="3.5" transform="rotate(146.464 57.8512 58.8509)" fill="#6D7BEC"/>
<circle cx="61.9184" cy="54.9184" r="3.5" transform="rotate(-141.441 61.9184 54.9184)" fill="#775BB9"/>
<circle cx="67.9184" cy="56.9184" r="3.5" transform="rotate(-141.441 67.9184 56.9184)" fill="#D32C33"/>
<circle cx="75.5" cy="110.5" r="3.5" fill="#D32C33"/>
<circle cx="68.5" cy="110.5" r="3.5" fill="#E95958"/>
<circle cx="61.5" cy="110.5" r="3.5" fill="#EE8734"/>
<circle cx="54.5" cy="109.5" r="3.5" fill="#FDCE45"/>
<circle cx="47.5" cy="108.5" r="3.5" fill="#B7C334"/>
<circle cx="15.5" cy="51.5" r="3.5" fill="#3BB376"/>
<circle cx="35.5" cy="102.5" r="3.5" fill="#62C2DC"/>
<circle cx="29.5" cy="98.5" r="3.5" fill="#6D7BEC"/>
<circle cx="25.5" cy="93.5" r="3.5" fill="#775BB9"/>
<circle cx="22.5" cy="86.5" r="3.5" fill="#D32C33"/>
<circle cx="19.5" cy="79.5" r="3.5" fill="#E95958"/>
<circle cx="16.5" cy="72.5" r="3.5" fill="#EE8734"/>
<circle cx="15.5" cy="65.5" r="3.5" fill="#FED04F"/>
<circle cx="15.5" cy="58.5" r="3.5" fill="#B7C334"/>
<circle cx="41.5" cy="106.5" r="3.5" fill="#3BB376"/>
<circle cx="15.5" cy="44.5" r="3.5" fill="#62C2DC"/>
<circle cx="16.5" cy="37.5" r="3.5" fill="#6D7BEC"/>
<circle cx="88.8512" cy="62.8509" r="3.5" transform="rotate(146.464 88.8512 62.8509)" fill="#775BB9"/>
<circle cx="35.9184" cy="59.9184" r="3.5" transform="rotate(-141.441 35.9184 59.9184)" fill="#EE8734"/>
<circle cx="88.9184" cy="44.9184" r="3.5" transform="rotate(-141.441 88.9184 44.9184)" fill="#3BB376"/>
<circle cx="89.9184" cy="50.9184" r="3.5" transform="rotate(-141.441 89.9184 50.9184)" fill="#62C2DC"/>
<circle cx="89.9184" cy="56.9184" r="3.5" transform="rotate(-141.441 89.9184 56.9184)" fill="#6D7BEC"/>
</svg>
