<svg width="126" height="124" viewBox="0 0 126 124" fill="none" xmlns="http://www.w3.org/2000/svg">
<path d="M77.8619 111.718C73.0483 111.718 68.3486 111.955 63.5064 111.955C61.225 111.955 58.9373 112.005 56.6567 111.955C55.1078 111.921 53.5651 111.481 52.0115 111.481C50.3502 111.481 48.6639 110.534 47.0382 110.534C46.317 110.534 44.6005 110.058 43.9677 109.705C42.7639 109.035 41.3066 108.839 40.0704 108.219C38.0657 107.214 36.4416 106.068 34.5854 104.851C32.6221 103.565 30.8714 103.091 29.3235 101.194C27.9177 99.472 26.339 97.5574 25.4262 95.4985C25.0787 94.7146 24.7733 93.8704 24.3633 93.1307C24.0371 92.5419 23.7853 91.4988 23.3529 91.0654C22.6598 90.3706 24.1918 91.5734 23.1955 90.2893C22.4985 89.391 21.907 88.3534 21.4109 87.3295C20.2579 84.9499 19.0956 82.3412 18.5765 79.7393C17.8293 75.994 15.9426 72.4449 15.5191 68.6237C15.3631 67.2164 15.0336 65.9238 15.0336 64.48C15.0336 62.7922 15.127 61.0748 15.0336 59.3892C14.7883 54.9633 14.1703 50.388 14.0888 45.8926C14.0359 42.9749 13.7595 40.8917 14.5612 38.0788C14.9352 36.7665 16.0764 35.4866 16.7394 34.2902C17.0853 33.6661 17.8796 31.7729 18.4453 31.4489C19.124 31.0601 19.5371 29.7755 20.1118 29.1994C21.049 28.2599 22.5264 27.4325 23.3005 26.4238C24.8378 24.4203 27.5603 23.2809 29.6253 21.9776C30.4783 21.4391 31.7926 21.198 32.5121 20.5569C33.1806 19.9612 34.7552 19.0837 35.5827 18.8994C36.9575 18.5931 38.187 17.424 39.5455 16.9525C40.674 16.5609 41.9599 16.3495 43.0229 15.9396C44.0451 15.5455 45.2432 15.5301 46.3165 15.3345C47.9439 15.0379 49.5875 14.598 51.2504 14.3479C52.4666 14.165 53.6642 13.8924 54.8458 13.677C56.358 13.4014 57.9418 13.3023 59.4386 12.9272C61.162 12.4953 62.9592 12.7616 64.6874 12.4537C66.2244 12.1797 67.7956 12.0327 69.3588 12.0327C71.5201 12.0327 73.7689 11.8738 75.8674 12.2563C78.0084 12.6466 80.3835 13.2308 82.3496 14.2164C82.8746 14.4795 84.3945 14.5951 84.7116 14.9925C84.9672 15.3127 86.7415 16.025 87.1261 16.1106C89.467 16.6321 91.7848 17.8565 93.9233 18.8994C95.1125 19.4794 96.4031 20.2278 97.335 21.162C98.5949 22.425 99.8833 23.9577 100.891 25.5293C101.935 27.1565 104.558 28.6638 104.788 30.7385C105.028 32.8981 106.899 35.0603 107.57 37.079C108.016 38.4205 108.861 39.6128 109.329 40.9728C109.763 42.2367 110.029 43.6365 110.575 44.8402C111.055 45.8995 110.877 47.3321 111.218 48.4446C111.523 49.4378 111.713 50.5362 111.861 51.5754C112.22 54.0927 113.105 56.6854 113.291 59.205C113.538 62.5462 114 65.7036 114 69.0973C114 71.9378 112.342 74.6733 110.457 76.6743C110.162 76.9871 109.887 77.4744 109.696 77.8582C109.423 78.4051 109.045 78.4773 108.699 78.9237C108.095 79.7016 107.413 80.4366 106.678 81.1732C105.842 82.011 105.118 82.9295 104.316 83.7778C103.117 85.0461 101.597 85.9504 100.301 87.1059C96.9996 90.0473 93.864 92.9479 90.0392 95.2485C88.9089 95.9284 87.9866 96.5316 86.7193 96.8139C85.5797 97.0678 84.3783 97.2262 83.2419 97.5637C79.8974 98.5572 76.4931 99.0789 73.138 99.8263C71.4623 100.2 69.6053 100.116 67.8891 100.116C66.0667 100.116 63.8025 100.489 62.0367 99.9973C60.3881 99.5383 58.8743 99.5001 57.3128 98.695C56.0799 98.0594 54.7839 97.4601 53.5205 96.906C52.27 96.3576 51.2107 95.3865 49.9907 94.775C49.2824 94.42 48.2422 93.9956 47.6812 93.4332C47.0951 92.8457 46.2804 92.4477 45.621 91.9336C44.5534 91.1011 44.0088 89.9536 43.141 88.987C41.8091 87.5034 40.7893 85.2556 40.1754 83.4094C39.0592 80.0525 37.9304 76.8266 37.2361 73.3462C36.4974 69.6436 35.6284 65.8873 34.6904 62.2306C33.7562 58.5886 33.6931 54.8092 33.6931 51.0492C33.6931 44.7121 40.077 38.955 44.6763 35.3689C51.6041 29.9673 60.3422 29.081 68.8864 29.081C70.1461 29.081 71.4059 29.081 72.6656 29.081C74.5931 29.081 76.2564 30.3282 78.0981 30.7385C79.7416 31.1047 82.2606 32.6923 83.4781 33.8693C84.6859 35.0369 85.996 36.0514 87.1917 37.25C89.3159 39.3795 90.2074 42.4258 91.1414 45.2349C92.0926 48.0955 92.0494 51.0542 92.6898 53.9432C95.4129 66.2277 83.9361 78.1272 72.4294 79.8051C69.9945 80.1601 65.9161 80.5804 63.8082 78.9369C62.7783 78.1338 61.6789 77.8137 60.8557 76.6217C60.0762 75.4929 58.9062 74.7917 58.1395 73.5961C56.6278 71.2388 56.1318 68.5885 56.1318 65.8349C56.1318 63.0968 55.4542 59.3294 56.6567 56.7846C57.6367 54.7106 59.0217 53.4696 61.4462 53.4696C63.3436 53.4696 64.9524 52.8526 66.7607 53.759C68.1217 54.4412 69.4861 55.4053 69.8181 56.903C70.0485 57.9423 70.2252 61.0466 68.7683 61.0466C67.8528 61.0466 67.7316 60.1941 67.3511 59.5076C66.8295 58.5662 66.0936 58.7121 65.396 58.1526C64.2197 57.2093 62.1424 57.9796 61.0919 58.9156C59.8341 60.0365 59.288 61.2552 59.6879 63.0593C59.8761 63.9086 60.3998 64.7771 60.8032 65.5455C61.5262 66.9226 61.9178 68.6903 62.8765 69.926C64.0704 71.4648 64.7371 73.1225 66.9968 73.1225C69.1051 73.1225 71.2134 73.1225 73.3217 73.1225C78.1139 73.1225 82.3328 70.9463 85.3021 67.3082C86.8197 65.4488 88.7269 63.8773 88.7269 61.2834C88.7269 59.4019 89.1993 57.5511 89.1993 55.6007C89.1993 53.589 89.332 51.5374 88.9763 49.5759C88.6948 48.0242 88.1523 46.3395 87.3098 44.9981C86.9431 44.4142 86.2911 43.5617 86.1157 42.946C85.9552 42.3828 85.0055 41.4516 84.5935 41.0385C83.5501 39.9926 82.7178 38.8646 81.641 37.842C80.4506 36.7114 78.3274 35.2374 76.6809 35.2374C74.9968 35.2374 73.3164 34.527 71.6027 34.527C70.9159 34.527 69.2898 34.2708 68.6502 34.0008C67.7439 33.6183 66.4587 33.5799 65.4616 33.5799C60.1708 33.5799 54.9635 32.9912 50.2794 35.9477C49.2691 36.5854 48.1825 37.2179 47.1563 37.7894C46.5392 38.133 45.3117 38.5581 45.0306 39.2627C44.8413 39.737 43.97 40.7548 43.6134 41.1569C42.9835 41.8673 42.6512 42.8875 42.065 43.6432C41.4485 44.4377 40.9549 45.3183 40.5428 46.2478C40.0759 47.3009 40.1032 48.3445 39.7817 49.3917C39.1083 51.5858 38.6532 53.9968 38.6532 56.311C38.6532 58.7534 38.6532 61.1957 38.6532 63.6381C38.6532 64.9095 38.5543 66.2002 38.837 67.4398C39.185 68.9662 39.656 70.6274 39.8473 72.1623C40.0213 73.5575 40.7455 75.2747 41.1333 76.6743C41.5344 78.1218 42.1401 79.4145 42.8523 80.6996C43.8026 82.4144 44.8005 83.9829 45.7916 85.672C46.0673 86.1418 47.389 87.3207 47.8649 87.6189C48.8422 88.2312 49.8394 89.8408 50.5812 90.7497C52.2934 92.8476 54.5579 93.498 57.0766 94.3014C59.1109 94.9503 61.221 95.4172 63.2177 96.1957C64.3002 96.6177 65.7866 97.0376 66.9444 97.0376C68.0641 97.0376 69.1839 97.0376 70.3036 97.0376C71.9525 97.0376 73.509 96.483 75.1456 96.3404C77.902 96.1001 80.3799 94.4656 83.0582 93.7752C84.7598 93.3366 86.7689 92.3833 88.1365 91.2232C89.1337 90.3773 90.538 89.163 91.745 88.6976C92.7262 88.3193 93.4601 87.2723 94.3957 86.8033C95.7079 86.1456 96.8835 85.3273 98.1617 84.6065C100.288 83.4076 102.653 80.7194 103.725 78.5685C104.543 76.9287 105.814 75.5253 106.547 73.846C107.063 72.6626 107.556 71.463 108.095 70.2812C108.965 68.3735 109.692 66.3168 110.103 64.2564C110.545 62.0415 110.221 59.5195 110.221 57.2581C110.221 56.1585 110.496 54.5883 110.168 53.5222C109.713 52.0374 108.701 50.7047 108.331 49.2207C107.92 47.5721 106.734 45.7677 105.969 44.2351C105.019 42.3295 103.973 40.4703 103.017 38.5523C102.254 37.0232 101.19 35.6368 100.301 34.1719C99.144 32.2671 98.0396 30.381 96.7576 28.5549C95.9392 27.3889 94.7361 26.5662 93.8052 25.5293C92.7418 24.3448 91.1815 22.969 89.8554 22.0828C87.7847 20.6989 85.3191 19.5701 83.0451 18.5442C80.1343 17.2311 77.2872 15.3462 74.0828 14.8872C71.8677 14.57 69.4748 14.4005 67.233 14.4005C63.4959 14.4005 59.7836 14.1678 56.1318 15.0583C53.9993 15.5783 51.7519 15.7275 49.702 16.5316C47.5092 17.3917 45.1546 17.9831 42.9179 18.7678C41.2715 19.3455 39.6233 20.142 37.9447 20.6095C37.059 20.8561 36.1718 21.3383 35.3465 21.7408C34.4466 22.1796 33.4658 22.2264 32.6302 22.8063C30.0009 24.6311 26.8523 25.5691 24.9538 28.3181C24.187 29.4284 23.2508 30.4421 22.4738 31.5673C21.3583 33.1824 20.8239 35.1378 19.9937 36.8949C16.6361 44.0007 16.2596 52.531 17.3955 60.2179C18.1443 65.2845 18.6583 70.5786 20.2299 75.4904C21.2971 78.8257 21.9489 82.5736 24.429 85.2511C25.6316 86.5495 26.3303 88.5048 27.3158 89.9867C28.1953 91.3092 29.2738 92.8441 30.3864 93.9594C33.1122 96.692 35.8611 99.3142 39.1256 101.418C40.9083 102.567 42.602 103.709 44.3745 104.851C46.3022 106.094 48.924 106.502 51.0536 107.338C52.2278 107.798 53.4653 108.166 54.7146 108.166C60.7546 108.166 66.7467 108.403 72.7837 108.403C74.3281 108.403 76.8876 108.745 78.0981 109.824C78.4844 110.168 79.4016 111.146 78.6886 111.718C78.1459 112.153 77.1453 111.955 76.4447 111.955" stroke="black" stroke-linecap="round"/>
<g filter="url(#filter0_f_240_1020)">
<circle cx="68.5" cy="110.5" r="2.5" fill="#D32C33"/>
</g>
<g filter="url(#filter1_f_240_1020)">
<circle cx="52.5" cy="93.5" r="2.5" fill="#D32C33"/>
</g>
<g filter="url(#filter2_f_240_1020)">
<circle cx="51.5" cy="108.5" r="2.5" fill="#E95958"/>
</g>
<g filter="url(#filter3_f_240_1020)">
<circle cx="41.5" cy="81.5" r="2.5" fill="#E95958"/>
</g>
<g filter="url(#filter4_f_240_1020)">
<circle cx="37.5" cy="101.5" r="2.5" fill="#EE8734"/>
</g>
<g filter="url(#filter5_f_240_1020)">
<circle cx="37.5" cy="65.5" r="2.5" fill="#EE8734"/>
</g>
<g filter="url(#filter6_f_240_1020)">
<circle cx="26.5" cy="90.5" r="2.5" fill="#FDCE45"/>
</g>
<g filter="url(#filter7_f_240_1020)">
<circle cx="37.5" cy="49.5" r="2.5" fill="#FDCE45"/>
</g>
<g filter="url(#filter8_f_240_1020)">
<circle cx="18.5" cy="76.5" r="2.5" fill="#B7C334"/>
</g>
<g filter="url(#filter9_f_240_1020)">
<circle cx="48.5" cy="36.5" r="2.5" fill="#B7C334"/>
</g>
<g filter="url(#filter10_f_240_1020)">
<circle cx="15.5" cy="59.5" r="2.5" fill="#3BB376"/>
</g>
<g filter="url(#filter11_f_240_1020)">
<circle cx="63.5" cy="31.5" r="2.5" fill="#3BB376"/>
</g>
<g filter="url(#filter12_f_240_1020)">
<circle cx="17.5" cy="42.5" r="2.5" fill="#62C2DC"/>
</g>
<g filter="url(#filter13_f_240_1020)">
<circle cx="79.5" cy="33.5" r="2.5" fill="#62C2DC"/>
</g>
<g filter="url(#filter14_f_240_1020)">
<circle cx="28.5" cy="26.5" r="2.5" fill="#6D7BEC"/>
</g>
<g filter="url(#filter15_f_240_1020)">
<circle cx="89.5" cy="43.5" r="2.5" fill="#6D7BEC"/>
</g>
<g filter="url(#filter16_f_240_1020)">
<circle cx="45.5" cy="18.5" r="2.5" fill="#775BB9"/>
</g>
<g filter="url(#filter17_f_240_1020)">
<circle cx="91.5" cy="57.5" r="2.5" fill="#775BB9"/>
</g>
<g filter="url(#filter18_f_240_1020)">
<circle cx="68.5" cy="98.5" r="2.5" fill="#775BB9"/>
</g>
<g filter="url(#filter19_f_240_1020)">
<circle cx="63.5" cy="14.5" r="2.5" fill="#D32C33"/>
</g>
<g filter="url(#filter20_f_240_1020)">
<circle cx="85.5" cy="70.5" r="2.5" fill="#D32C33"/>
</g>
<g filter="url(#filter21_f_240_1020)">
<circle cx="81.5" cy="16.5" r="2.5" fill="#E95958"/>
</g>
<g filter="url(#filter22_f_240_1020)">
<circle cx="72.5" cy="76.5" r="2.5" fill="#E95958"/>
</g>
<g filter="url(#filter23_f_240_1020)">
<circle cx="96.5" cy="23.5" r="2.5" fill="#EE8734"/>
</g>
<g filter="url(#filter24_f_240_1020)">
<circle cx="60.5" cy="69.5" r="2.5" fill="#EE8734"/>
</g>
<g filter="url(#filter25_f_240_1020)">
<circle cx="105.5" cy="38.5" r="2.5" fill="#FED04F"/>
</g>
<g filter="url(#filter26_f_240_1020)">
<circle cx="62.5" cy="55.5" r="2.5" fill="#FED04F"/>
</g>
<g filter="url(#filter27_f_240_1020)">
<circle cx="111.5" cy="54.5" r="2.5" fill="#B7C334"/>
</g>
<g filter="url(#filter28_f_240_1020)">
<circle cx="110.5" cy="72.5" r="2.5" fill="#3BB376"/>
</g>
<g filter="url(#filter29_f_240_1020)">
<circle cx="99.5" cy="85.5" r="2.5" fill="#62C2DC"/>
</g>
<g filter="url(#filter30_f_240_1020)">
<circle cx="85.5" cy="95.5" r="2.5" fill="#6D7BEC"/>
</g>
<defs>
<filter id="filter0_f_240_1020" x="65" y="107" width="7" height="7" filterUnits="userSpaceOnUse" color-interpolation-filters="sRGB">
<feFlood flood-opacity="0" result="BackgroundImageFix"/>
<feBlend mode="normal" in="SourceGraphic" in2="BackgroundImageFix" result="shape"/>
<feGaussianBlur stdDeviation="0.5" result="effect1_foregroundBlur_240_1020"/>
</filter>
<filter id="filter1_f_240_1020" x="49" y="90" width="7" height="7" filterUnits="userSpaceOnUse" color-interpolation-filters="sRGB">
<feFlood flood-opacity="0" result="BackgroundImageFix"/>
<feBlend mode="normal" in="SourceGraphic" in2="BackgroundImageFix" result="shape"/>
<feGaussianBlur stdDeviation="0.5" result="effect1_foregroundBlur_240_1020"/>
</filter>
<filter id="filter2_f_240_1020" x="48" y="105" width="7" height="7" filterUnits="userSpaceOnUse" color-interpolation-filters="sRGB">
<feFlood flood-opacity="0" result="BackgroundImageFix"/>
<feBlend mode="normal" in="SourceGraphic" in2="BackgroundImageFix" result="shape"/>
<feGaussianBlur stdDeviation="0.5" result="effect1_foregroundBlur_240_1020"/>
</filter>
<filter id="filter3_f_240_1020" x="38" y="78" width="7" height="7" filterUnits="userSpaceOnUse" color-interpolation-filters="sRGB">
<feFlood flood-opacity="0" result="BackgroundImageFix"/>
<feBlend mode="normal" in="SourceGraphic" in2="BackgroundImageFix" result="shape"/>
<feGaussianBlur stdDeviation="0.5" result="effect1_foregroundBlur_240_1020"/>
</filter>
<filter id="filter4_f_240_1020" x="34" y="98" width="7" height="7" filterUnits="userSpaceOnUse" color-interpolation-filters="sRGB">
<feFlood flood-opacity="0" result="BackgroundImageFix"/>
<feBlend mode="normal" in="SourceGraphic" in2="BackgroundImageFix" result="shape"/>
<feGaussianBlur stdDeviation="0.5" result="effect1_foregroundBlur_240_1020"/>
</filter>
<filter id="filter5_f_240_1020" x="34" y="62" width="7" height="7" filterUnits="userSpaceOnUse" color-interpolation-filters="sRGB">
<feFlood flood-opacity="0" result="BackgroundImageFix"/>
<feBlend mode="normal" in="SourceGraphic" in2="BackgroundImageFix" result="shape"/>
<feGaussianBlur stdDeviation="0.5" result="effect1_foregroundBlur_240_1020"/>
</filter>
<filter id="filter6_f_240_1020" x="23" y="87" width="7" height="7" filterUnits="userSpaceOnUse" color-interpolation-filters="sRGB">
<feFlood flood-opacity="0" result="BackgroundImageFix"/>
<feBlend mode="normal" in="SourceGraphic" in2="BackgroundImageFix" result="shape"/>
<feGaussianBlur stdDeviation="0.5" result="effect1_foregroundBlur_240_1020"/>
</filter>
<filter id="filter7_f_240_1020" x="34" y="46" width="7" height="7" filterUnits="userSpaceOnUse" color-interpolation-filters="sRGB">
<feFlood flood-opacity="0" result="BackgroundImageFix"/>
<feBlend mode="normal" in="SourceGraphic" in2="BackgroundImageFix" result="shape"/>
<feGaussianBlur stdDeviation="0.5" result="effect1_foregroundBlur_240_1020"/>
</filter>
<filter id="filter8_f_240_1020" x="15" y="73" width="7" height="7" filterUnits="userSpaceOnUse" color-interpolation-filters="sRGB">
<feFlood flood-opacity="0" result="BackgroundImageFix"/>
<feBlend mode="normal" in="SourceGraphic" in2="BackgroundImageFix" result="shape"/>
<feGaussianBlur stdDeviation="0.5" result="effect1_foregroundBlur_240_1020"/>
</filter>
<filter id="filter9_f_240_1020" x="45" y="33" width="7" height="7" filterUnits="userSpaceOnUse" color-interpolation-filters="sRGB">
<feFlood flood-opacity="0" result="BackgroundImageFix"/>
<feBlend mode="normal" in="SourceGraphic" in2="BackgroundImageFix" result="shape"/>
<feGaussianBlur stdDeviation="0.5" result="effect1_foregroundBlur_240_1020"/>
</filter>
<filter id="filter10_f_240_1020" x="12" y="56" width="7" height="7" filterUnits="userSpaceOnUse" color-interpolation-filters="sRGB">
<feFlood flood-opacity="0" result="BackgroundImageFix"/>
<feBlend mode="normal" in="SourceGraphic" in2="BackgroundImageFix" result="shape"/>
<feGaussianBlur stdDeviation="0.5" result="effect1_foregroundBlur_240_1020"/>
</filter>
<filter id="filter11_f_240_1020" x="60" y="28" width="7" height="7" filterUnits="userSpaceOnUse" color-interpolation-filters="sRGB">
<feFlood flood-opacity="0" result="BackgroundImageFix"/>
<feBlend mode="normal" in="SourceGraphic" in2="BackgroundImageFix" result="shape"/>
<feGaussianBlur stdDeviation="0.5" result="effect1_foregroundBlur_240_1020"/>
</filter>
<filter id="filter12_f_240_1020" x="14" y="39" width="7" height="7" filterUnits="userSpaceOnUse" color-interpolation-filters="sRGB">
<feFlood flood-opacity="0" result="BackgroundImageFix"/>
<feBlend mode="normal" in="SourceGraphic" in2="BackgroundImageFix" result="shape"/>
<feGaussianBlur stdDeviation="0.5" result="effect1_foregroundBlur_240_1020"/>
</filter>
<filter id="filter13_f_240_1020" x="76" y="30" width="7" height="7" filterUnits="userSpaceOnUse" color-interpolation-filters="sRGB">
<feFlood flood-opacity="0" result="BackgroundImageFix"/>
<feBlend mode="normal" in="SourceGraphic" in2="BackgroundImageFix" result="shape"/>
<feGaussianBlur stdDeviation="0.5" result="effect1_foregroundBlur_240_1020"/>
</filter>
<filter id="filter14_f_240_1020" x="25" y="23" width="7" height="7" filterUnits="userSpaceOnUse" color-interpolation-filters="sRGB">
<feFlood flood-opacity="0" result="BackgroundImageFix"/>
<feBlend mode="normal" in="SourceGraphic" in2="BackgroundImageFix" result="shape"/>
<feGaussianBlur stdDeviation="0.5" result="effect1_foregroundBlur_240_1020"/>
</filter>
<filter id="filter15_f_240_1020" x="86" y="40" width="7" height="7" filterUnits="userSpaceOnUse" color-interpolation-filters="sRGB">
<feFlood flood-opacity="0" result="BackgroundImageFix"/>
<feBlend mode="normal" in="SourceGraphic" in2="BackgroundImageFix" result="shape"/>
<feGaussianBlur stdDeviation="0.5" result="effect1_foregroundBlur_240_1020"/>
</filter>
<filter id="filter16_f_240_1020" x="42" y="15" width="7" height="7" filterUnits="userSpaceOnUse" color-interpolation-filters="sRGB">
<feFlood flood-opacity="0" result="BackgroundImageFix"/>
<feBlend mode="normal" in="SourceGraphic" in2="BackgroundImageFix" result="shape"/>
<feGaussianBlur stdDeviation="0.5" result="effect1_foregroundBlur_240_1020"/>
</filter>
<filter id="filter17_f_240_1020" x="88" y="54" width="7" height="7" filterUnits="userSpaceOnUse" color-interpolation-filters="sRGB">
<feFlood flood-opacity="0" result="BackgroundImageFix"/>
<feBlend mode="normal" in="SourceGraphic" in2="BackgroundImageFix" result="shape"/>
<feGaussianBlur stdDeviation="0.5" result="effect1_foregroundBlur_240_1020"/>
</filter>
<filter id="filter18_f_240_1020" x="65" y="95" width="7" height="7" filterUnits="userSpaceOnUse" color-interpolation-filters="sRGB">
<feFlood flood-opacity="0" result="BackgroundImageFix"/>
<feBlend mode="normal" in="SourceGraphic" in2="BackgroundImageFix" result="shape"/>
<feGaussianBlur stdDeviation="0.5" result="effect1_foregroundBlur_240_1020"/>
</filter>
<filter id="filter19_f_240_1020" x="60" y="11" width="7" height="7" filterUnits="userSpaceOnUse" color-interpolation-filters="sRGB">
<feFlood flood-opacity="0" result="BackgroundImageFix"/>
<feBlend mode="normal" in="SourceGraphic" in2="BackgroundImageFix" result="shape"/>
<feGaussianBlur stdDeviation="0.5" result="effect1_foregroundBlur_240_1020"/>
</filter>
<filter id="filter20_f_240_1020" x="82" y="67" width="7" height="7" filterUnits="userSpaceOnUse" color-interpolation-filters="sRGB">
<feFlood flood-opacity="0" result="BackgroundImageFix"/>
<feBlend mode="normal" in="SourceGraphic" in2="BackgroundImageFix" result="shape"/>
<feGaussianBlur stdDeviation="0.5" result="effect1_foregroundBlur_240_1020"/>
</filter>
<filter id="filter21_f_240_1020" x="78" y="13" width="7" height="7" filterUnits="userSpaceOnUse" color-interpolation-filters="sRGB">
<feFlood flood-opacity="0" result="BackgroundImageFix"/>
<feBlend mode="normal" in="SourceGraphic" in2="BackgroundImageFix" result="shape"/>
<feGaussianBlur stdDeviation="0.5" result="effect1_foregroundBlur_240_1020"/>
</filter>
<filter id="filter22_f_240_1020" x="69" y="73" width="7" height="7" filterUnits="userSpaceOnUse" color-interpolation-filters="sRGB">
<feFlood flood-opacity="0" result="BackgroundImageFix"/>
<feBlend mode="normal" in="SourceGraphic" in2="BackgroundImageFix" result="shape"/>
<feGaussianBlur stdDeviation="0.5" result="effect1_foregroundBlur_240_1020"/>
</filter>
<filter id="filter23_f_240_1020" x="93" y="20" width="7" height="7" filterUnits="userSpaceOnUse" color-interpolation-filters="sRGB">
<feFlood flood-opacity="0" result="BackgroundImageFix"/>
<feBlend mode="normal" in="SourceGraphic" in2="BackgroundImageFix" result="shape"/>
<feGaussianBlur stdDeviation="0.5" result="effect1_foregroundBlur_240_1020"/>
</filter>
<filter id="filter24_f_240_1020" x="57" y="66" width="7" height="7" filterUnits="userSpaceOnUse" color-interpolation-filters="sRGB">
<feFlood flood-opacity="0" result="BackgroundImageFix"/>
<feBlend mode="normal" in="SourceGraphic" in2="BackgroundImageFix" result="shape"/>
<feGaussianBlur stdDeviation="0.5" result="effect1_foregroundBlur_240_1020"/>
</filter>
<filter id="filter25_f_240_1020" x="102" y="35" width="7" height="7" filterUnits="userSpaceOnUse" color-interpolation-filters="sRGB">
<feFlood flood-opacity="0" result="BackgroundImageFix"/>
<feBlend mode="normal" in="SourceGraphic" in2="BackgroundImageFix" result="shape"/>
<feGaussianBlur stdDeviation="0.5" result="effect1_foregroundBlur_240_1020"/>
</filter>
<filter id="filter26_f_240_1020" x="59" y="52" width="7" height="7" filterUnits="userSpaceOnUse" color-interpolation-filters="sRGB">
<feFlood flood-opacity="0" result="BackgroundImageFix"/>
<feBlend mode="normal" in="SourceGraphic" in2="BackgroundImageFix" result="shape"/>
<feGaussianBlur stdDeviation="0.5" result="effect1_foregroundBlur_240_1020"/>
</filter>
<filter id="filter27_f_240_1020" x="108" y="51" width="7" height="7" filterUnits="userSpaceOnUse" color-interpolation-filters="sRGB">
<feFlood flood-opacity="0" result="BackgroundImageFix"/>
<feBlend mode="normal" in="SourceGraphic" in2="BackgroundImageFix" result="shape"/>
<feGaussianBlur stdDeviation="0.5" result="effect1_foregroundBlur_240_1020"/>
</filter>
<filter id="filter28_f_240_1020" x="107" y="69" width="7" height="7" filterUnits="userSpaceOnUse" color-interpolation-filters="sRGB">
<feFlood flood-opacity="0" result="BackgroundImageFix"/>
<feBlend mode="normal" in="SourceGraphic" in2="BackgroundImageFix" result="shape"/>
<feGaussianBlur stdDeviation="0.5" result="effect1_foregroundBlur_240_1020"/>
</filter>
<filter id="filter29_f_240_1020" x="96" y="82" width="7" height="7" filterUnits="userSpaceOnUse" color-interpolation-filters="sRGB">
<feFlood flood-opacity="0" result="BackgroundImageFix"/>
<feBlend mode="normal" in="SourceGraphic" in2="BackgroundImageFix" result="shape"/>
<feGaussianBlur stdDeviation="0.5" result="effect1_foregroundBlur_240_1020"/>
</filter>
<filter id="filter30_f_240_1020" x="82" y="92" width="7" height="7" filterUnits="userSpaceOnUse" color-interpolation-filters="sRGB">
<feFlood flood-opacity="0" result="BackgroundImageFix"/>
<feBlend mode="normal" in="SourceGraphic" in2="BackgroundImageFix" result="shape"/>
<feGaussianBlur stdDeviation="0.5" result="effect1_foregroundBlur_240_1020"/>
</filter>
</defs>
</svg>
